<?xml version="1.0" encoding="UTF-8"?>
<!DOCTYPE svg PUBLIC "-//W3C//DTD SVG 1.1//EN" "http://www.w3.org/Graphics/SVG/1.1/DTD/svg11.dtd">
<svg xmlns="http://www.w3.org/2000/svg" version="1.1" width="512px" height="512px" style="shape-rendering:geometricPrecision; text-rendering:geometricPrecision; image-rendering:optimizeQuality; fill-rule:evenodd; clip-rule:evenodd" xmlns:xlink="http://www.w3.org/1999/xlink">
<g><path style="opacity:0.99" fill="#fee359" d="M 205.5,-0.5 C 242.5,-0.5 279.5,-0.5 316.5,-0.5C 285.833,30.5 255.167,61.5 224.5,92.5C 211.833,92.5 199.167,92.5 186.5,92.5C 186.047,67.1232 186.547,41.7899 188,16.5C 191.109,7.88855 196.943,2.22189 205.5,-0.5 Z"/></g>
<g><path style="opacity:1" fill="#fedd52" d="M 316.5,-0.5 C 331.5,-0.5 346.5,-0.5 361.5,-0.5C 330.833,30.5 300.167,61.5 269.5,92.5C 254.5,92.5 239.5,92.5 224.5,92.5C 255.167,61.5 285.833,30.5 316.5,-0.5 Z"/></g>
<g><path style="opacity:1" fill="#fed84c" d="M 361.5,-0.5 C 371.833,-0.5 382.167,-0.5 392.5,-0.5C 361.833,30.5 331.167,61.5 300.5,92.5C 290.167,92.5 279.833,92.5 269.5,92.5C 300.167,61.5 330.833,30.5 361.5,-0.5 Z"/></g>
<g><path style="opacity:1" fill="#fed347" d="M 392.5,-0.5 C 405.833,-0.5 419.167,-0.5 432.5,-0.5C 402.035,30.4653 371.368,61.2987 340.5,92C 327.171,92.4999 313.837,92.6666 300.5,92.5C 331.167,61.5 361.833,30.5 392.5,-0.5 Z"/></g>
<g><path style="opacity:1" fill="#fdce43" d="M 432.5,-0.5 C 445.833,-0.5 459.167,-0.5 472.5,-0.5C 442.035,30.4653 411.368,61.2987 380.5,92C 385.019,92.1753 389.353,92.6753 393.5,93.5C 387.5,93.5 381.5,93.5 375.5,93.5C 364.833,93.5 354.167,93.5 343.5,93.5C 337.833,93.5 332.167,93.5 326.5,93.5C 319.833,93.5 313.167,93.5 306.5,93.5C 303.167,93.5 299.833,93.5 296.5,93.5C 288.833,93.5 281.167,93.5 273.5,93.5C 267.167,93.5 260.833,93.5 254.5,93.5C 248.5,93.5 242.5,93.5 236.5,93.5C 220.167,93.5 203.833,93.5 187.5,93.5C 186.833,93.5 186.5,93.1667 186.5,92.5C 199.167,92.5 211.833,92.5 224.5,92.5C 239.5,92.5 254.5,92.5 269.5,92.5C 279.833,92.5 290.167,92.5 300.5,92.5C 313.837,92.6666 327.171,92.4999 340.5,92C 371.368,61.2987 402.035,30.4653 432.5,-0.5 Z"/></g>
<g><path style="opacity:0.999" fill="#fec93b" d="M 472.5,-0.5 C 479.5,-0.5 486.5,-0.5 493.5,-0.5C 498.537,1.02856 502.537,4.02856 505.5,8.5C 473.55,38.7833 442.216,69.7833 411.5,101.5C 407.648,97.5738 402.981,95.2405 397.5,94.5C 396.432,93.5655 395.099,93.2322 393.5,93.5C 389.353,92.6753 385.019,92.1753 380.5,92C 411.368,61.2987 442.035,30.4653 472.5,-0.5 Z"/></g>
<g><path style="opacity:0.998" fill="#fec435" d="M 505.5,8.5 C 508.256,11.0177 510.256,14.0177 511.5,17.5C 511.5,25.5 511.5,33.5 511.5,41.5C 485.035,67.4651 458.701,93.6318 432.5,120C 431.906,120.464 431.239,120.631 430.5,120.5C 429.167,119.5 427.833,118.5 426.5,117.5C 422.833,113.167 418.833,109.167 414.5,105.5C 414.5,104.833 414.167,104.5 413.5,104.5C 412.833,103.5 412.167,102.5 411.5,101.5C 442.216,69.7833 473.55,38.7833 505.5,8.5 Z"/></g>
<g><path style="opacity:1" fill="#febe2f" d="M 511.5,41.5 C 511.5,56.8333 511.5,72.1667 511.5,87.5C 492.167,106.167 473.167,125.167 454.5,144.5C 453.167,143.5 451.833,142.5 450.5,141.5C 448.5,138.833 446.167,136.5 443.5,134.5C 441.5,131.833 439.167,129.5 436.5,127.5C 435.167,125.5 433.5,123.833 431.5,122.5C 431.167,121.833 430.833,121.167 430.5,120.5C 431.239,120.631 431.906,120.464 432.5,120C 458.701,93.6318 485.035,67.4651 511.5,41.5 Z"/></g>
<g><path style="opacity:1" fill="#feb828" d="M 511.5,87.5 C 511.5,102.5 511.5,117.5 511.5,132.5C 499.868,143.631 488.368,154.965 477,166.5C 474.713,164.946 472.546,163.279 470.5,161.5C 466.833,157.167 462.833,153.167 458.5,149.5C 457.167,147.833 455.833,146.167 454.5,144.5C 473.167,125.167 492.167,106.167 511.5,87.5 Z"/></g>
<g><path style="opacity:0.983" fill="#fdade0" d="M 186.5,92.5 C 186.5,93.1667 186.833,93.5 187.5,93.5C 187.5,109.833 187.5,126.167 187.5,142.5C 187.5,148.5 187.5,154.5 187.5,160.5C 187.5,166.833 187.5,173.167 187.5,179.5C 187.5,182.167 187.5,184.833 187.5,187.5C 187.167,187.5 186.833,187.5 186.5,187.5C 183.167,187.5 179.833,187.5 176.5,187.5C 172.5,187.5 168.5,187.5 164.5,187.5C 158.5,187.5 152.5,187.5 146.5,187.5C 143.167,187.5 139.833,187.5 136.5,187.5C 122.167,187.5 107.833,187.5 93.5,187.5C 93.5,186.833 93.1667,186.5 92.5,186.5C 92.3334,163.164 92.5,139.831 93,116.5C 94.8333,102.667 102.667,94.8333 116.5,93C 139.831,92.5 163.164,92.3334 186.5,92.5 Z"/></g>
<g><path style="opacity:1" fill="#fba1a7" d="M 187.5,93.5 C 203.833,93.5 220.167,93.5 236.5,93.5C 220.5,110.167 204.167,126.5 187.5,142.5C 187.5,126.167 187.5,109.833 187.5,93.5 Z"/></g>
<g><path style="opacity:1" fill="#fb9b9e" d="M 236.5,93.5 C 242.5,93.5 248.5,93.5 254.5,93.5C 232.5,116.167 210.167,138.5 187.5,160.5C 187.5,154.5 187.5,148.5 187.5,142.5C 204.167,126.5 220.5,110.167 236.5,93.5 Z"/></g>
<g><path style="opacity:1" fill="#fa9597" d="M 254.5,93.5 C 260.833,93.5 267.167,93.5 273.5,93.5C 245.167,122.5 216.5,151.167 187.5,179.5C 187.5,173.167 187.5,166.833 187.5,160.5C 210.167,138.5 232.5,116.167 254.5,93.5 Z"/></g>
<g><path style="opacity:1" fill="#f88d8f" d="M 273.5,93.5 C 281.167,93.5 288.833,93.5 296.5,93.5C 266.035,124.465 235.368,155.299 204.5,186C 207.817,186.498 211.15,186.665 214.5,186.5C 221.167,186.5 227.833,186.5 234.5,186.5C 240.167,186.5 245.833,186.5 251.5,186.5C 262.167,186.5 272.833,186.5 283.5,186.5C 289.358,186.178 295.025,186.511 300.5,187.5C 298.833,187.5 297.167,187.5 295.5,187.5C 291.833,187.5 288.167,187.5 284.5,187.5C 280.833,187.5 277.167,187.5 273.5,187.5C 268.833,187.5 264.167,187.5 259.5,187.5C 256.167,187.5 252.833,187.5 249.5,187.5C 243.167,187.5 236.833,187.5 230.5,187.5C 224.5,187.5 218.5,187.5 212.5,187.5C 204.167,187.5 195.833,187.5 187.5,187.5C 187.5,184.833 187.5,182.167 187.5,179.5C 216.5,151.167 245.167,122.5 273.5,93.5 Z"/></g>
<g><path style="opacity:1" fill="#f98a8a" d="M 296.5,93.5 C 299.833,93.5 303.167,93.5 306.5,93.5C 275.833,124.5 245.167,155.5 214.5,186.5C 211.15,186.665 207.817,186.498 204.5,186C 235.368,155.299 266.035,124.465 296.5,93.5 Z"/></g>
<g><path style="opacity:1" fill="#f88685" d="M 306.5,93.5 C 313.167,93.5 319.833,93.5 326.5,93.5C 295.833,124.5 265.167,155.5 234.5,186.5C 227.833,186.5 221.167,186.5 214.5,186.5C 245.167,155.5 275.833,124.5 306.5,93.5 Z"/></g>
<g><path style="opacity:1" fill="#f8817f" d="M 326.5,93.5 C 332.167,93.5 337.833,93.5 343.5,93.5C 312.833,124.5 282.167,155.5 251.5,186.5C 245.833,186.5 240.167,186.5 234.5,186.5C 265.167,155.5 295.833,124.5 326.5,93.5 Z"/></g>
<g><path style="opacity:1" fill="#f87976" d="M 343.5,93.5 C 354.167,93.5 364.833,93.5 375.5,93.5C 344.833,124.5 314.167,155.5 283.5,186.5C 272.833,186.5 262.167,186.5 251.5,186.5C 282.167,155.5 312.833,124.5 343.5,93.5 Z"/></g>
<g><path style="opacity:1" fill="#f6736f" d="M 375.5,93.5 C 381.5,93.5 387.5,93.5 393.5,93.5C 395.099,93.2322 396.432,93.5655 397.5,94.5C 366.167,125.167 335.167,156.167 304.5,187.5C 303.167,187.5 301.833,187.5 300.5,187.5C 295.025,186.511 289.358,186.178 283.5,186.5C 314.167,155.5 344.833,124.5 375.5,93.5 Z"/></g>
<g><path style="opacity:1" fill="#f56d68" d="M 397.5,94.5 C 402.981,95.2405 407.648,97.5738 411.5,101.5C 412.167,102.5 412.833,103.5 413.5,104.5C 381.55,134.783 350.216,165.783 319.5,197.5C 318.833,197.167 318.167,196.833 317.5,196.5C 317.167,195.5 316.5,194.833 315.5,194.5C 312.931,191.272 309.598,189.272 305.5,188.5C 305.5,187.833 305.167,187.5 304.5,187.5C 335.167,156.167 366.167,125.167 397.5,94.5 Z"/></g>
<g><path style="opacity:1" fill="#f46561" d="M 413.5,104.5 C 414.167,104.5 414.5,104.833 414.5,105.5C 416.316,109.284 417.316,113.284 417.5,117.5C 417.5,123.833 417.5,130.167 417.5,136.5C 390.45,162.55 364.116,189.217 338.5,216.5C 338.167,216.5 337.833,216.5 337.5,216.5C 332.5,210.833 327.167,205.5 321.5,200.5C 320.599,199.71 319.932,198.71 319.5,197.5C 350.216,165.783 381.55,134.783 413.5,104.5 Z"/></g>
<g><path style="opacity:1" fill="#f58532" d="M 414.5,105.5 C 418.833,109.167 422.833,113.167 426.5,117.5C 425.528,123.691 425.528,129.858 426.5,136C 426.056,137.762 425.556,137.595 425,135.5C 424.605,137.179 424.772,138.845 425.5,140.5C 425.182,141.647 424.516,142.481 423.5,143C 424.478,151.247 423.812,159.58 421.5,168C 422.022,168.561 422.355,169.228 422.5,170C 420.653,178.479 419.986,186.979 420.5,195.5C 420.043,196.298 419.376,196.631 418.5,196.5C 418.831,169.995 418.498,143.661 417.5,117.5C 417.316,113.284 416.316,109.284 414.5,105.5 Z"/></g>
<g><path style="opacity:1" fill="#f68c2e" d="M 426.5,117.5 C 427.833,118.5 429.167,119.5 430.5,120.5C 430.833,121.167 431.167,121.833 431.5,122.5C 431.414,123.496 431.748,124.329 432.5,125C 431.283,129.065 430.283,133.065 429.5,137C 430.478,145.247 429.812,153.58 427.5,162C 427.535,165.116 427.868,168.282 428.5,171.5C 427.511,172.468 426.844,173.635 426.5,175C 426.5,179.333 426.5,183.667 426.5,188C 426.561,189.711 425.894,191.044 424.5,192C 424.968,193.822 425.301,195.989 425.5,198.5C 423.548,205.546 421.214,212.546 418.5,219.5C 418.5,211.833 418.5,204.167 418.5,196.5C 419.376,196.631 420.043,196.298 420.5,195.5C 419.986,186.979 420.653,178.479 422.5,170C 422.355,169.228 422.022,168.561 421.5,168C 423.812,159.58 424.478,151.247 423.5,143C 424.516,142.481 425.182,141.647 425.5,140.5C 424.772,138.845 424.605,137.179 425,135.5C 425.556,137.595 426.056,137.762 426.5,136C 425.528,129.858 425.528,123.691 426.5,117.5 Z"/></g>
<g><path style="opacity:1" fill="#fdb121" d="M 511.5,132.5 C 511.5,150.5 511.5,168.5 511.5,186.5C 503.175,194.325 495.008,202.325 487,210.5C 484.904,209.285 485.071,208.451 487.5,208C 486.27,203.661 484.437,203.494 482,207.5C 481.13,206.892 480.63,206.059 480.5,205C 482.122,199.826 481.289,199.326 478,203.5C 477.933,201.265 478.433,199.098 479.5,197C 478.004,196.493 476.837,196.993 476,198.5C 475.376,196.536 475.876,194.869 477.5,193.5C 477.154,192.304 476.654,192.304 476,193.5C 475.023,190.898 473.856,188.398 472.5,186C 472.833,183.667 473.167,181.333 473.5,179C 471.052,176.426 471.052,173.926 473.5,171.5C 473.154,170.304 472.654,170.304 472,171.5C 471.39,168.173 470.89,164.839 470.5,161.5C 472.546,163.279 474.713,164.946 477,166.5C 488.368,154.965 499.868,143.631 511.5,132.5 Z"/></g>
<g><path style="opacity:1" fill="#f25e5a" d="M 417.5,136.5 C 417.5,145.167 417.5,153.833 417.5,162.5C 416.317,163.504 414.984,164.338 413.5,165C 392.993,186.673 371.993,207.84 350.5,228.5C 348.5,226.833 346.5,225.167 344.5,223.5C 342.5,221.167 340.5,218.833 338.5,216.5C 364.116,189.217 390.45,162.55 417.5,136.5 Z"/></g>
<g><path style="opacity:1" fill="#fea5dd" d="M 185.5,148.5 C 186.495,160.989 186.829,173.656 186.5,186.5C 173.829,186.667 161.162,186.5 148.5,186C 161.035,173.632 173.369,161.132 185.5,148.5 Z"/></g>
<g><path style="opacity:1" fill="#f89829" d="M 436.5,127.5 C 439.167,129.5 441.5,131.833 443.5,134.5C 442.647,137.262 442.647,139.929 443.5,142.5C 441.473,147.189 441.473,151.689 443.5,156C 441.55,158.668 441.217,161.502 442.5,164.5C 442.278,166.055 441.611,167.389 440.5,168.5C 440.625,173.141 440.958,177.808 441.5,182.5C 441.466,188.644 440.132,194.644 437.5,200.5C 438.376,201.251 439.376,201.751 440.5,202C 438.273,202.704 437.94,203.871 439.5,205.5C 438.4,206.558 437.066,207.392 435.5,208C 439.237,208.999 439.237,210.332 435.5,212C 436.308,212.308 436.975,212.808 437.5,213.5C 437.089,215.503 435.755,217.336 433.5,219C 434.167,219.333 434.833,219.667 435.5,220C 432.59,225.07 431.09,230.57 431,236.5C 430.667,236.167 430.333,235.833 430,235.5C 429.722,236.416 429.222,237.082 428.5,237.5C 428.947,234.614 428.947,231.78 428.5,229C 428.905,228.055 429.572,227.388 430.5,227C 429.868,222.021 429.534,217.021 429.5,212C 430.167,210.667 430.833,209.333 431.5,208C 431.683,200.326 431.683,192.659 431.5,185C 431.807,179.124 432.807,173.957 434.5,169.5C 433.881,163.421 434.214,157.255 435.5,151C 434.275,148.34 434.608,145.673 436.5,143C 436.12,137.9 436.12,132.734 436.5,127.5 Z"/></g>
<g><path style="opacity:1" fill="#fa9f26" d="M 443.5,134.5 C 446.167,136.5 448.5,138.833 450.5,141.5C 449.406,144.431 449.406,147.431 450.5,150.5C 450.291,151.994 449.624,153.161 448.5,154C 450.869,156.895 450.869,159.728 448.5,162.5C 449.198,167.197 449.531,171.864 449.5,176.5C 449.081,177.672 448.415,178.672 447.5,179.5C 448.167,179.833 448.833,180.167 449.5,180.5C 447.269,183.299 447.269,185.966 449.5,188.5C 448.22,190.702 448.22,192.868 449.5,195C 448.76,196.785 448.093,198.618 447.5,200.5C 448.641,201.425 448.641,202.259 447.5,203C 448.308,203.308 448.975,203.808 449.5,204.5C 448.389,205.611 447.722,206.945 447.5,208.5C 447.517,212.806 447.851,217.139 448.5,221.5C 445.513,224.712 445.847,227.545 449.5,230C 448.572,230.388 447.905,231.055 447.5,232C 448.149,233.69 448.149,235.523 447.5,237.5C 447.854,240.421 446.854,242.754 444.5,244.5C 447.131,246.005 446.797,246.671 443.5,246.5C 443.703,248.39 443.037,249.89 441.5,251C 444.097,251.779 444.097,252.279 441.5,252.5C 439.176,249.862 438.509,246.862 439.5,243.5C 439.154,242.304 438.654,242.304 438,243.5C 437.833,242.667 437.667,241.833 437.5,241C 438.73,238.487 438.73,235.987 437.5,233.5C 437.722,231.945 438.389,230.611 439.5,229.5C 438.975,228.808 438.308,228.308 437.5,228C 438.833,225.667 438.833,223.333 437.5,221C 439.696,219.631 440.03,217.798 438.5,215.5C 440.524,212.165 440.857,208.832 439.5,205.5C 437.94,203.871 438.273,202.704 440.5,202C 439.376,201.751 438.376,201.251 437.5,200.5C 440.132,194.644 441.466,188.644 441.5,182.5C 440.958,177.808 440.625,173.141 440.5,168.5C 441.611,167.389 442.278,166.055 442.5,164.5C 441.217,161.502 441.55,158.668 443.5,156C 441.473,151.689 441.473,147.189 443.5,142.5C 442.647,139.929 442.647,137.262 443.5,134.5 Z"/></g>
<g><path style="opacity:1" fill="#f15955" d="M 417.5,162.5 C 417.5,168.833 417.5,175.167 417.5,181.5C 398.167,200.167 379.167,219.167 360.5,238.5C 359.5,237.833 358.5,237.167 357.5,236.5C 355.167,233.833 352.833,231.167 350.5,228.5C 371.993,207.84 392.993,186.673 413.5,165C 414.984,164.338 416.317,163.504 417.5,162.5 Z"/></g>
<g><path style="opacity:1" fill="#f8922a" d="M 431.5,122.5 C 433.5,123.833 435.167,125.5 436.5,127.5C 436.12,132.734 436.12,137.9 436.5,143C 434.608,145.673 434.275,148.34 435.5,151C 434.214,157.255 433.881,163.421 434.5,169.5C 432.807,173.957 431.807,179.124 431.5,185C 431.683,192.659 431.683,200.326 431.5,208C 430.833,209.333 430.167,210.667 429.5,212C 429.534,217.021 429.868,222.021 430.5,227C 429.572,227.388 428.905,228.055 428.5,229C 428.947,231.78 428.947,234.614 428.5,237.5C 428.5,239.833 428.5,242.167 428.5,244.5C 427.883,244.389 427.383,244.056 427,243.5C 426.042,245.624 424.875,247.624 423.5,249.5C 426.109,251.288 426.109,252.955 423.5,254.5C 421.683,245.855 421.016,237.189 421.5,228.5C 423.736,226.453 424.069,224.12 422.5,221.5C 423.321,213.793 424.321,206.126 425.5,198.5C 425.301,195.989 424.968,193.822 424.5,192C 425.894,191.044 426.561,189.711 426.5,188C 426.5,183.667 426.5,179.333 426.5,175C 426.844,173.635 427.511,172.468 428.5,171.5C 427.868,168.282 427.535,165.116 427.5,162C 429.812,153.58 430.478,145.247 429.5,137C 430.283,133.065 431.283,129.065 432.5,125C 431.748,124.329 431.414,123.496 431.5,122.5 Z"/></g>
<g><path style="opacity:0.996" fill="#b2d9fe" d="M 92.5,186.5 C 61.8333,217.833 30.8333,248.833 -0.5,279.5C -0.5,254.833 -0.5,230.167 -0.5,205.5C 2.22189,196.943 7.88855,191.109 16.5,188C 41.7899,186.547 67.1232,186.047 92.5,186.5 Z"/></g>
<g><path style="opacity:1" fill="#fdab1c" d="M 458.5,149.5 C 462.833,153.167 466.833,157.167 470.5,161.5C 470.89,164.839 471.39,168.173 472,171.5C 472.654,170.304 473.154,170.304 473.5,171.5C 471.052,173.926 471.052,176.426 473.5,179C 473.167,181.333 472.833,183.667 472.5,186C 473.856,188.398 475.023,190.898 476,193.5C 476.654,192.304 477.154,192.304 477.5,193.5C 475.876,194.869 475.376,196.536 476,198.5C 476.837,196.993 478.004,196.493 479.5,197C 478.433,199.098 477.933,201.265 478,203.5C 481.289,199.326 482.122,199.826 480.5,205C 480.63,206.059 481.13,206.892 482,207.5C 484.437,203.494 486.27,203.661 487.5,208C 485.071,208.451 484.904,209.285 487,210.5C 495.008,202.325 503.175,194.325 511.5,186.5C 511.5,201.5 511.5,216.5 511.5,231.5C 507.702,234.796 504.036,238.296 500.5,242C 495.487,241.441 491.487,243.108 488.5,247C 485.769,247.071 483.269,246.904 481,246.5C 480.333,247.167 479.667,247.833 479,248.5C 478.259,247.359 477.425,247.359 476.5,248.5C 475.201,247.91 474.368,246.91 474,245.5C 472.534,247.325 470.701,247.825 468.5,247C 469.956,246.577 470.456,245.744 470,244.5C 468.667,245.167 467.333,245.833 466,246.5C 465.689,245.258 466.189,244.258 467.5,243.5C 465.728,240.723 463.895,240.39 462,242.5C 461.471,240.415 461.971,238.582 463.5,237C 462.99,235.174 462.156,235.007 461,236.5C 460.833,235.833 460.667,235.167 460.5,234.5C 461.754,232.666 462.421,230.666 462.5,228.5C 461.325,228.719 460.325,228.386 459.5,227.5C 461.086,225.827 461.753,223.827 461.5,221.5C 460.325,221.719 459.325,221.386 458.5,220.5C 460.173,218.477 460.84,216.144 460.5,213.5C 459.448,213.649 458.448,213.483 457.5,213C 458.944,211.293 460.277,209.46 461.5,207.5C 457.983,205.616 457.649,203.283 460.5,200.5C 459.833,200.167 459.167,199.833 458.5,199.5C 459.747,195.962 459.747,192.462 458.5,189C 460.887,185.262 460.554,181.595 457.5,178C 458.167,176.667 458.833,175.333 459.5,174C 458.658,171.932 458.658,169.765 459.5,167.5C 459.406,165.311 458.739,163.311 457.5,161.5C 458.014,157.408 458.347,153.408 458.5,149.5 Z"/></g>
<g><path style="opacity:1" fill="#abd6fd" d="M 92.5,186.5 C 93.1667,186.5 93.5,186.833 93.5,187.5C 93.5,194.833 93.5,202.167 93.5,209.5C 92.8826,209.389 92.3826,209.056 92,208.5C 61.2987,239.368 30.4653,270.035 -0.5,300.5C -0.5,293.5 -0.5,286.5 -0.5,279.5C 30.8333,248.833 61.8333,217.833 92.5,186.5 Z"/></g>
<g><path style="opacity:1" fill="#b1b3e6" d="M 93.5,187.5 C 107.833,187.5 122.167,187.5 136.5,187.5C 122.5,202.167 108.167,216.5 93.5,230.5C 93.5,223.5 93.5,216.5 93.5,209.5C 93.5,202.167 93.5,194.833 93.5,187.5 Z"/></g>
<g><path style="opacity:1" fill="#afabe1" d="M 136.5,187.5 C 139.833,187.5 143.167,187.5 146.5,187.5C 129.167,205.5 111.5,223.167 93.5,240.5C 93.5,237.167 93.5,233.833 93.5,230.5C 108.167,216.5 122.5,202.167 136.5,187.5 Z"/></g>
<g><path style="opacity:1" fill="#ada5de" d="M 146.5,187.5 C 152.5,187.5 158.5,187.5 164.5,187.5C 141.167,211.5 117.5,235.167 93.5,258.5C 93.5,255.833 93.5,253.167 93.5,250.5C 93.5,247.167 93.5,243.833 93.5,240.5C 111.5,223.167 129.167,205.5 146.5,187.5 Z"/></g>
<g><path style="opacity:1" fill="#ac9fda" d="M 164.5,187.5 C 168.5,187.5 172.5,187.5 176.5,187.5C 149.167,215.5 121.5,243.167 93.5,270.5C 93.5,266.833 93.5,263.167 93.5,259.5C 93.5,259.167 93.5,258.833 93.5,258.5C 117.5,235.167 141.167,211.5 164.5,187.5 Z"/></g>
<g><path style="opacity:1" fill="#ab99d7" d="M 176.5,187.5 C 179.833,187.5 183.167,187.5 186.5,187.5C 186.5,189.5 186.5,191.5 186.5,193.5C 155.5,224.167 124.5,254.833 93.5,285.5C 93.5,280.5 93.5,275.5 93.5,270.5C 121.5,243.167 149.167,215.5 176.5,187.5 Z"/></g>
<g><path style="opacity:1" fill="#c55ca8" d="M 187.5,187.5 C 195.833,187.5 204.167,187.5 212.5,187.5C 204.5,196.167 196.167,204.5 187.5,212.5C 187.5,211.833 187.5,211.167 187.5,210.5C 187.5,202.833 187.5,195.167 187.5,187.5 Z"/></g>
<g><path style="opacity:1" fill="#c94f9e" d="M 212.5,187.5 C 218.5,187.5 224.5,187.5 230.5,187.5C 216.5,202.167 202.167,216.5 187.5,230.5C 187.5,224.5 187.5,218.5 187.5,212.5C 196.167,204.5 204.5,196.167 212.5,187.5 Z"/></g>
<g><path style="opacity:1" fill="#cd4395" d="M 230.5,187.5 C 236.833,187.5 243.167,187.5 249.5,187.5C 229.167,208.5 208.5,229.167 187.5,249.5C 187.5,243.167 187.5,236.833 187.5,230.5C 202.167,216.5 216.5,202.167 230.5,187.5 Z"/></g>
<g><path style="opacity:1" fill="#cf3a8e" d="M 249.5,187.5 C 252.833,187.5 256.167,187.5 259.5,187.5C 235.833,211.833 211.833,235.833 187.5,259.5C 187.5,256.167 187.5,252.833 187.5,249.5C 208.5,229.167 229.167,208.5 249.5,187.5 Z"/></g>
<g><path style="opacity:1" fill="#d13488" d="M 259.5,187.5 C 264.167,187.5 268.833,187.5 273.5,187.5C 245.167,216.5 216.5,245.167 187.5,273.5C 187.5,269.833 187.5,266.167 187.5,262.5C 187.5,261.5 187.5,260.5 187.5,259.5C 211.833,235.833 235.833,211.833 259.5,187.5 Z"/></g>
<g><path style="opacity:1" fill="#d5287d" d="M 284.5,187.5 C 288.167,187.5 291.833,187.5 295.5,187.5C 259.833,223.833 223.833,259.833 187.5,295.5C 187.5,291.833 187.5,288.167 187.5,284.5C 220.167,252.5 252.5,220.167 284.5,187.5 Z"/></g>
<g><path style="opacity:1" fill="#d72379" d="M 295.5,187.5 C 297.167,187.5 298.833,187.5 300.5,187.5C 301.833,187.5 303.167,187.5 304.5,187.5C 305.167,187.5 305.5,187.833 305.5,188.5C 265.883,226.45 226.883,265.117 188.5,304.5C 187.523,301.713 187.19,298.713 187.5,295.5C 223.833,259.833 259.833,223.833 295.5,187.5 Z"/></g>
<g><path style="opacity:1" fill="#d91e74" d="M 305.5,188.5 C 309.598,189.272 312.931,191.272 315.5,194.5C 314.213,195.528 313.046,195.195 312,193.5C 272.207,232.293 232.707,271.46 193.5,311C 195.036,312.468 195.37,313.968 194.5,315.5C 193.833,315.167 193.167,314.833 192.5,314.5C 190.609,311.386 189.276,308.052 188.5,304.5C 226.883,265.117 265.883,226.45 305.5,188.5 Z"/></g>
<g><path style="opacity:1" fill="#ef5450" d="M 417.5,181.5 C 417.5,191.5 417.5,201.5 417.5,211.5C 403.167,225.167 389.167,239.167 375.5,253.5C 374.5,252.833 373.5,252.167 372.5,251.5C 368.833,247.167 364.833,243.167 360.5,239.5C 360.5,239.167 360.5,238.833 360.5,238.5C 379.167,219.167 398.167,200.167 417.5,181.5 Z"/></g>
<g><path style="opacity:1" fill="#dc156b" d="M 317.5,196.5 C 318.167,196.833 318.833,197.167 319.5,197.5C 319.932,198.71 320.599,199.71 321.5,200.5C 322.038,202.117 322.371,203.784 322.5,205.5C 283.167,244.167 244.167,283.167 205.5,322.5C 203.046,321.773 200.713,320.773 198.5,319.5C 197.833,318.833 197.167,318.167 196.5,317.5C 235.582,276.917 275.249,236.75 315.5,197C 316.094,196.536 316.761,196.369 317.5,196.5 Z"/></g>
<g><path style="opacity:1" fill="#a992d3" d="M 186.5,193.5 C 186.666,198.511 186.499,203.511 186,208.5C 155.299,239.368 124.465,270.035 93.5,300.5C 93.5,299.833 93.5,299.167 93.5,298.5C 93.5,294.167 93.5,289.833 93.5,285.5C 124.5,254.833 155.5,224.167 186.5,193.5 Z"/></g>
<g><path style="opacity:1" fill="#de1066" d="M 322.5,205.5 C 323.451,206.919 323.784,208.585 323.5,210.5C 323.5,212.833 323.5,215.167 323.5,217.5C 287.833,252.5 252.5,287.833 217.5,323.5C 215.167,323.5 212.833,323.5 210.5,323.5C 208.708,323.634 207.042,323.301 205.5,322.5C 244.167,283.167 283.167,244.167 322.5,205.5 Z"/></g>
<g><path style="opacity:1" fill="#a98cd0" d="M 186.5,187.5 C 186.833,187.5 187.167,187.5 187.5,187.5C 187.5,195.167 187.5,202.833 187.5,210.5C 186.518,213.962 186.185,217.629 186.5,221.5C 155.5,252.167 124.5,282.833 93.5,313.5C 93.5,309.167 93.5,304.833 93.5,300.5C 124.465,270.035 155.299,239.368 186,208.5C 186.499,203.511 186.666,198.511 186.5,193.5C 186.5,191.5 186.5,189.5 186.5,187.5 Z"/></g>
<g><path style="opacity:1" fill="#df0b61" d="M 323.5,217.5 C 323.5,220.833 323.5,224.167 323.5,227.5C 291.167,259.167 259.167,291.167 227.5,323.5C 224.167,323.5 220.833,323.5 217.5,323.5C 252.5,287.833 287.833,252.5 323.5,217.5 Z"/></g>
<g><path style="opacity:1" fill="#fca51d" d="M 450.5,141.5 C 451.833,142.5 453.167,143.5 454.5,144.5C 455.833,146.167 457.167,147.833 458.5,149.5C 458.347,153.408 458.014,157.408 457.5,161.5C 458.739,163.311 459.406,165.311 459.5,167.5C 458.658,169.765 458.658,171.932 459.5,174C 458.833,175.333 458.167,176.667 457.5,178C 460.554,181.595 460.887,185.262 458.5,189C 459.747,192.462 459.747,195.962 458.5,199.5C 459.167,199.833 459.833,200.167 460.5,200.5C 457.649,203.283 457.983,205.616 461.5,207.5C 460.277,209.46 458.944,211.293 457.5,213C 458.448,213.483 459.448,213.649 460.5,213.5C 460.84,216.144 460.173,218.477 458.5,220.5C 459.325,221.386 460.325,221.719 461.5,221.5C 461.753,223.827 461.086,225.827 459.5,227.5C 460.325,228.386 461.325,228.719 462.5,228.5C 462.421,230.666 461.754,232.666 460.5,234.5C 460.667,235.167 460.833,235.833 461,236.5C 462.156,235.007 462.99,235.174 463.5,237C 461.971,238.582 461.471,240.415 462,242.5C 463.895,240.39 465.728,240.723 467.5,243.5C 466.189,244.258 465.689,245.258 466,246.5C 467.333,245.833 468.667,245.167 470,244.5C 470.456,245.744 469.956,246.577 468.5,247C 470.701,247.825 472.534,247.325 474,245.5C 474.368,246.91 475.201,247.91 476.5,248.5C 477.425,247.359 478.259,247.359 479,248.5C 479.667,247.833 480.333,247.167 481,246.5C 483.269,246.904 485.769,247.071 488.5,247C 491.487,243.108 495.487,241.441 500.5,242C 504.036,238.296 507.702,234.796 511.5,231.5C 511.5,239.5 511.5,247.5 511.5,255.5C 500.063,255.294 489.23,257.294 479,261.5C 476.149,260.756 473.483,260.756 471,261.5C 469.739,258.18 468.072,257.846 466,260.5C 465.51,259.207 465.343,257.873 465.5,256.5C 460.939,257.116 456.939,255.949 453.5,253C 454.308,252.692 454.975,252.192 455.5,251.5C 452.723,250.222 450.39,248.389 448.5,246C 450.421,244.195 451.088,242.195 450.5,240C 449.922,238.583 448.922,237.75 447.5,237.5C 448.149,235.523 448.149,233.69 447.5,232C 447.905,231.055 448.572,230.388 449.5,230C 445.847,227.545 445.513,224.712 448.5,221.5C 447.851,217.139 447.517,212.806 447.5,208.5C 447.722,206.945 448.389,205.611 449.5,204.5C 448.975,203.808 448.308,203.308 447.5,203C 448.641,202.259 448.641,201.425 447.5,200.5C 448.093,198.618 448.76,196.785 449.5,195C 448.22,192.868 448.22,190.702 449.5,188.5C 447.269,185.966 447.269,183.299 449.5,180.5C 448.833,180.167 448.167,179.833 447.5,179.5C 448.415,178.672 449.081,177.672 449.5,176.5C 449.531,171.864 449.198,167.197 448.5,162.5C 450.869,159.728 450.869,156.895 448.5,154C 449.624,153.161 450.291,151.994 450.5,150.5C 449.406,147.431 449.406,144.431 450.5,141.5 Z"/></g>
<g><path style="opacity:1" fill="#9c392f" d="M 321.5,200.5 C 327.167,205.5 332.5,210.833 337.5,216.5C 336.509,221.805 335.509,227.138 334.5,232.5C 335.25,235.045 334.916,237.545 333.5,240C 334.488,242.42 334.155,244.753 332.5,247C 333.246,249.093 333.579,251.093 333.5,253C 332.167,260.667 330.833,268.333 329.5,276C 330.512,278.361 330.179,281.028 328.5,284C 328.833,284.333 329.167,284.667 329.5,285C 328.21,293.145 326.877,301.311 325.5,309.5C 325.709,310.086 326.043,310.586 326.5,311C 325.883,313.277 325.216,315.444 324.5,317.5C 324.832,281.663 324.498,245.996 323.5,210.5C 323.784,208.585 323.451,206.919 322.5,205.5C 322.371,203.784 322.038,202.117 321.5,200.5 Z"/></g>
<g><path style="opacity:1" fill="#a1d1fd" d="M 93.5,209.5 C 93.5,216.5 93.5,223.5 93.5,230.5C 93.5,233.833 93.5,237.167 93.5,240.5C 93.5,243.833 93.5,247.167 93.5,250.5C 92.7321,249.737 92.2321,248.737 92,247.5C 61.2987,278.368 30.4653,309.035 -0.5,339.5C -0.5,326.5 -0.5,313.5 -0.5,300.5C 30.4653,270.035 61.2987,239.368 92,208.5C 92.3826,209.056 92.8826,209.389 93.5,209.5 Z"/></g>
<g><path style="opacity:1" fill="#a887cc" d="M 186.5,221.5 C 186.5,226.833 186.5,232.167 186.5,237.5C 155.5,268.167 124.5,298.833 93.5,329.5C 93.5,324.167 93.5,318.833 93.5,313.5C 124.5,282.833 155.5,252.167 186.5,221.5 Z"/></g>
<g><path style="opacity:1" fill="#e1085e" d="M 323.5,227.5 C 323.5,231.5 323.5,235.5 323.5,239.5C 295.167,267.167 267.167,295.167 239.5,323.5C 235.5,323.5 231.5,323.5 227.5,323.5C 259.167,291.167 291.167,259.167 323.5,227.5 Z"/></g>
<g><path style="opacity:1" fill="#da1970" d="M 315.5,194.5 C 316.5,194.833 317.167,195.5 317.5,196.5C 316.761,196.369 316.094,196.536 315.5,197C 275.249,236.75 235.582,276.917 196.5,317.5C 195.5,317.167 194.833,316.5 194.5,315.5C 195.37,313.968 195.036,312.468 193.5,311C 232.707,271.46 272.207,232.293 312,193.5C 313.046,195.195 314.213,195.528 315.5,194.5 Z"/></g>
<g><path style="opacity:1" fill="#ec4d4a" d="M 417.5,211.5 C 417.5,224.5 417.5,237.5 417.5,250.5C 410.035,257.464 402.702,264.631 395.5,272C 394.365,272.749 393.365,272.583 392.5,271.5C 390.146,268.479 387.479,265.812 384.5,263.5C 381.5,260.167 378.5,256.833 375.5,253.5C 389.167,239.167 403.167,225.167 417.5,211.5 Z"/></g>
<g><path style="opacity:1" fill="#a93b32" d="M 337.5,216.5 C 337.833,216.5 338.167,216.5 338.5,216.5C 340.5,218.833 342.5,221.167 344.5,223.5C 342.881,237.029 340.881,251.362 338.5,266.5C 339.671,268.691 339.337,270.858 337.5,273C 338.036,274.744 338.37,276.577 338.5,278.5C 335.992,294.284 333.992,309.284 332.5,323.5C 329.833,323.5 327.167,323.5 324.5,323.5C 324.5,321.5 324.5,319.5 324.5,317.5C 325.216,315.444 325.883,313.277 326.5,311C 326.043,310.586 325.709,310.086 325.5,309.5C 326.877,301.311 328.21,293.145 329.5,285C 329.167,284.667 328.833,284.333 328.5,284C 330.179,281.028 330.512,278.361 329.5,276C 330.833,268.333 332.167,260.667 333.5,253C 333.579,251.093 333.246,249.093 332.5,247C 334.155,244.753 334.488,242.42 333.5,240C 334.916,237.545 335.25,235.045 334.5,232.5C 335.509,227.138 336.509,221.805 337.5,216.5 Z"/></g>
<g><path style="opacity:1" fill="#fb9f1a" d="M 447.5,237.5 C 448.922,237.75 449.922,238.583 450.5,240C 451.088,242.195 450.421,244.195 448.5,246C 450.39,248.389 452.723,250.222 455.5,251.5C 454.975,252.192 454.308,252.692 453.5,253C 456.939,255.949 460.939,257.116 465.5,256.5C 465.343,257.873 465.51,259.207 466,260.5C 468.072,257.846 469.739,258.18 471,261.5C 473.483,260.756 476.149,260.756 479,261.5C 489.23,257.294 500.063,255.294 511.5,255.5C 511.5,259.5 511.5,263.5 511.5,267.5C 501.251,267.181 491.084,267.514 481,268.5C 479.691,266.109 478.691,266.109 478,268.5C 473.667,267.167 469.333,267.167 465,268.5C 459.192,266.475 453.692,264.475 448.5,262.5C 444.68,260.19 442.347,256.857 441.5,252.5C 444.097,252.279 444.097,251.779 441.5,251C 443.037,249.89 443.703,248.39 443.5,246.5C 446.797,246.671 447.131,246.005 444.5,244.5C 446.854,242.754 447.854,240.421 447.5,237.5 Z"/></g>
<g><path style="opacity:1" fill="#e20459" d="M 323.5,239.5 C 323.5,243.5 323.5,247.5 323.5,251.5C 299.167,275.167 275.167,299.167 251.5,323.5C 247.5,323.5 243.5,323.5 239.5,323.5C 267.167,295.167 295.167,267.167 323.5,239.5 Z"/></g>
<g><path style="opacity:1" fill="#a780c8" d="M 186.5,237.5 C 186.666,243.842 186.5,250.175 186,256.5C 155.299,287.368 124.465,318.035 93.5,348.5C 93.5,345.833 93.5,343.167 93.5,340.5C 93.5,336.833 93.5,333.167 93.5,329.5C 124.5,298.833 155.5,268.167 186.5,237.5 Z"/></g>
<g><path style="opacity:1" fill="#c3403b" d="M 357.5,236.5 C 358.5,237.167 359.5,237.833 360.5,238.5C 360.5,238.833 360.5,239.167 360.5,239.5C 361.273,242.6 361.607,245.6 361.5,248.5C 360.143,251.714 359.809,254.881 360.5,258C 360.156,259.365 359.489,260.532 358.5,261.5C 359.668,262.906 359.335,264.072 357.5,265C 358.246,267.093 358.579,269.093 358.5,271C 357.833,271.667 357.167,272.333 356.5,273C 356.79,277.328 357.123,281.328 357.5,285C 356.833,285.667 356.167,286.333 355.5,287C 355.366,288.545 355.7,290.212 356.5,292C 355.571,298.793 354.238,305.459 352.5,312C 353.167,313 353.833,314 354.5,315C 352.812,317.831 352.145,320.664 352.5,323.5C 350.167,323.5 347.833,323.5 345.5,323.5C 344.5,323.5 343.5,323.5 342.5,323.5C 342.5,319.456 343.167,315.622 344.5,312C 343.329,308.744 343.663,305.078 345.5,301C 344.317,298.845 344.65,296.845 346.5,295C 346.167,294.667 345.833,294.333 345.5,294C 346.5,293.667 347.5,293.333 348.5,293C 347.269,291.817 347.269,290.651 348.5,289.5C 349.251,290.376 349.751,291.376 350,292.5C 350.5,292 351,291.5 351.5,291C 351.572,288.824 351.238,286.824 350.5,285C 352.649,274.244 354.316,263.911 355.5,254C 355.683,251.107 355.349,248.107 354.5,245C 355.167,244.333 355.833,243.667 356.5,243C 355.133,240.841 355.467,238.675 357.5,236.5 Z"/></g>
<g><path style="opacity:1" fill="#d42e83" d="M 273.5,187.5 C 277.167,187.5 280.833,187.5 284.5,187.5C 252.5,220.167 220.167,252.5 187.5,284.5C 187.5,280.833 187.5,277.167 187.5,273.5C 216.5,245.167 245.167,216.5 273.5,187.5 Z"/></g>
<g><path style="opacity:1" fill="#98ccfd" d="M 93.5,250.5 C 93.5,253.167 93.5,255.833 93.5,258.5C 93.5,258.833 93.5,259.167 93.5,259.5C 92.5269,261.948 92.1936,264.615 92.5,267.5C 61.5,298.167 30.5,328.833 -0.5,359.5C -0.5,352.833 -0.5,346.167 -0.5,339.5C 30.4653,309.035 61.2987,278.368 92,247.5C 92.2321,248.737 92.7321,249.737 93.5,250.5 Z"/></g>
<g><path style="opacity:1" fill="#e20256" d="M 323.5,251.5 C 323.5,275.5 323.5,299.5 323.5,323.5C 305.5,323.5 287.5,323.5 269.5,323.5C 263.5,323.5 257.5,323.5 251.5,323.5C 275.167,299.167 299.167,275.167 323.5,251.5 Z"/></g>
<g><path style="opacity:1" fill="#a779c3" d="M 187.5,210.5 C 187.5,211.167 187.5,211.833 187.5,212.5C 187.5,218.5 187.5,224.5 187.5,230.5C 187.5,236.833 187.5,243.167 187.5,249.5C 187.5,252.833 187.5,256.167 187.5,259.5C 187.5,260.5 187.5,261.5 187.5,262.5C 186.532,264.607 186.198,266.941 186.5,269.5C 155.5,300.167 124.5,330.833 93.5,361.5C 93.5,357.167 93.5,352.833 93.5,348.5C 124.465,318.035 155.299,287.368 186,256.5C 186.5,250.175 186.666,243.842 186.5,237.5C 186.5,232.167 186.5,226.833 186.5,221.5C 186.185,217.629 186.518,213.962 187.5,210.5 Z"/></g>
<g><path style="opacity:1" fill="#fa991d" d="M 439.5,205.5 C 440.857,208.832 440.524,212.165 438.5,215.5C 440.03,217.798 439.696,219.631 437.5,221C 438.833,223.333 438.833,225.667 437.5,228C 438.308,228.308 438.975,228.808 439.5,229.5C 438.389,230.611 437.722,231.945 437.5,233.5C 438.73,235.987 438.73,238.487 437.5,241C 437.667,241.833 437.833,242.667 438,243.5C 438.654,242.304 439.154,242.304 439.5,243.5C 438.509,246.862 439.176,249.862 441.5,252.5C 442.347,256.857 444.68,260.19 448.5,262.5C 453.692,264.475 459.192,266.475 465,268.5C 469.333,267.167 473.667,267.167 478,268.5C 478.691,266.109 479.691,266.109 481,268.5C 491.084,267.514 501.251,267.181 511.5,267.5C 511.5,269.833 511.5,272.167 511.5,274.5C 500.006,274.575 488.673,274.575 477.5,274.5C 475.617,275.024 473.784,275.691 472,276.5C 467.479,275.264 462.979,275.264 458.5,276.5C 457.088,275.194 455.421,274.36 453.5,274C 454.167,273.667 454.833,273.333 455.5,273C 453.5,272.667 451.5,272.333 449.5,272C 450.5,271.667 451.5,271.333 452.5,271C 450.231,270.242 448.064,270.409 446,271.5C 445.667,270.5 445.333,269.5 445,268.5C 443.951,269.517 442.784,269.684 441.5,269C 436.844,265.519 433.511,261.019 431.5,255.5C 433.802,254.001 433.469,252.668 430.5,251.5C 429.675,249.199 429.008,246.865 428.5,244.5C 428.5,242.167 428.5,239.833 428.5,237.5C 429.222,237.082 429.722,236.416 430,235.5C 430.333,235.833 430.667,236.167 431,236.5C 431.09,230.57 432.59,225.07 435.5,220C 434.833,219.667 434.167,219.333 433.5,219C 435.755,217.336 437.089,215.503 437.5,213.5C 436.975,212.808 436.308,212.308 435.5,212C 439.237,210.332 439.237,208.999 435.5,208C 437.066,207.392 438.4,206.558 439.5,205.5 Z"/></g>
<g><path style="opacity:1" fill="#cd413d" d="M 360.5,239.5 C 364.833,243.167 368.833,247.167 372.5,251.5C 371.316,252.688 371.316,253.855 372.5,255C 369.833,255.667 369.833,256.333 372.5,257C 372.249,258.95 371.582,261.116 370.5,263.5C 371.488,266.38 370.821,268.88 368.5,271C 369.672,271.419 370.672,272.085 371.5,273C 369.955,274.688 368.955,276.688 368.5,279C 369.481,281.607 369.814,284.441 369.5,287.5C 368.358,289.378 367.358,291.212 366.5,293C 367.167,293.667 367.833,294.333 368.5,295C 367.167,296.333 367.167,297.667 368.5,299C 366.109,300.309 366.109,301.309 368.5,302C 366.431,302.324 366.098,303.158 367.5,304.5C 367.023,305.478 366.357,306.311 365.5,307C 366.167,309 366.833,311 367.5,313C 365.36,314.241 365.027,315.907 366.5,318C 366.242,320.009 365.575,321.843 364.5,323.5C 360.5,323.5 356.5,323.5 352.5,323.5C 352.145,320.664 352.812,317.831 354.5,315C 353.833,314 353.167,313 352.5,312C 354.238,305.459 355.571,298.793 356.5,292C 355.7,290.212 355.366,288.545 355.5,287C 356.167,286.333 356.833,285.667 357.5,285C 357.123,281.328 356.79,277.328 356.5,273C 357.167,272.333 357.833,271.667 358.5,271C 358.579,269.093 358.246,267.093 357.5,265C 359.335,264.072 359.668,262.906 358.5,261.5C 359.489,260.532 360.156,259.365 360.5,258C 359.809,254.881 360.143,251.714 361.5,248.5C 361.607,245.6 361.273,242.6 360.5,239.5 Z"/></g>
<g><path style="opacity:1" fill="#f88c23" d="M 425.5,198.5 C 424.321,206.126 423.321,213.793 422.5,221.5C 424.069,224.12 423.736,226.453 421.5,228.5C 421.016,237.189 421.683,245.855 423.5,254.5C 423.865,257.625 424.698,260.625 426,263.5C 426.333,263.167 426.667,262.833 427,262.5C 428.875,266.878 431.375,270.878 434.5,274.5C 437.389,274.876 439.389,276.376 440.5,279C 448.944,279.659 457.278,280.825 465.5,282.5C 469.693,282.602 473.693,281.769 477.5,280C 488.828,279.5 500.162,279.333 511.5,279.5C 511.5,281.167 511.5,282.833 511.5,284.5C 500.495,284.333 489.495,284.5 478.5,285C 474.001,284.92 469.501,285.753 465,287.5C 459.573,286.94 454.073,286.773 448.5,287C 442.015,285.127 435.682,282.794 429.5,280C 427.875,279.147 427.542,278.147 428.5,277C 426.181,276.775 424.181,275.442 422.5,273C 422.833,272.667 423.167,272.333 423.5,272C 421.893,270.951 421.227,269.451 421.5,267.5C 420.5,267.5 419.5,267.5 418.5,267.5C 418.5,251.5 418.5,235.5 418.5,219.5C 421.214,212.546 423.548,205.546 425.5,198.5 Z"/></g>
<g><path style="opacity:1" fill="#b73e37" d="M 344.5,223.5 C 346.5,225.167 348.5,226.833 350.5,228.5C 352.833,231.167 355.167,233.833 357.5,236.5C 355.467,238.675 355.133,240.841 356.5,243C 355.833,243.667 355.167,244.333 354.5,245C 355.349,248.107 355.683,251.107 355.5,254C 354.316,263.911 352.649,274.244 350.5,285C 351.238,286.824 351.572,288.824 351.5,291C 351,291.5 350.5,292 350,292.5C 349.751,291.376 349.251,290.376 348.5,289.5C 347.269,290.651 347.269,291.817 348.5,293C 347.5,293.333 346.5,293.667 345.5,294C 345.833,294.333 346.167,294.667 346.5,295C 344.65,296.845 344.317,298.845 345.5,301C 343.663,305.078 343.329,308.744 344.5,312C 343.167,315.622 342.5,319.456 342.5,323.5C 339.167,323.5 335.833,323.5 332.5,323.5C 333.992,309.284 335.992,294.284 338.5,278.5C 338.37,276.577 338.036,274.744 337.5,273C 339.337,270.858 339.671,268.691 338.5,266.5C 340.881,251.362 342.881,237.029 344.5,223.5 Z"/></g>
<g><path style="opacity:1" fill="#92c9fe" d="M 92.5,267.5 C 92.6662,273.842 92.4995,280.175 92,286.5C 61.2987,317.368 30.4653,348.035 -0.5,378.5C -0.5,372.167 -0.5,365.833 -0.5,359.5C 30.5,328.833 61.5,298.167 92.5,267.5 Z"/></g>
<g><path style="opacity:1" fill="#a773c0" d="M 186.5,269.5 C 186.5,275.167 186.5,280.833 186.5,286.5C 155.5,317.167 124.5,347.833 93.5,378.5C 93.5,372.833 93.5,367.167 93.5,361.5C 124.5,330.833 155.5,300.167 186.5,269.5 Z"/></g>
<g><path style="opacity:1" fill="#f9921f" d="M 428.5,244.5 C 429.008,246.865 429.675,249.199 430.5,251.5C 433.469,252.668 433.802,254.001 431.5,255.5C 433.511,261.019 436.844,265.519 441.5,269C 442.784,269.684 443.951,269.517 445,268.5C 445.333,269.5 445.667,270.5 446,271.5C 448.064,270.409 450.231,270.242 452.5,271C 451.5,271.333 450.5,271.667 449.5,272C 451.5,272.333 453.5,272.667 455.5,273C 454.833,273.333 454.167,273.667 453.5,274C 455.421,274.36 457.088,275.194 458.5,276.5C 462.979,275.264 467.479,275.264 472,276.5C 473.784,275.691 475.617,275.024 477.5,274.5C 488.673,274.575 500.006,274.575 511.5,274.5C 511.5,276.167 511.5,277.833 511.5,279.5C 500.162,279.333 488.828,279.5 477.5,280C 473.693,281.769 469.693,282.602 465.5,282.5C 457.278,280.825 448.944,279.659 440.5,279C 439.389,276.376 437.389,274.876 434.5,274.5C 431.375,270.878 428.875,266.878 427,262.5C 426.667,262.833 426.333,263.167 426,263.5C 424.698,260.625 423.865,257.625 423.5,254.5C 426.109,252.955 426.109,251.288 423.5,249.5C 424.875,247.624 426.042,245.624 427,243.5C 427.383,244.056 427.883,244.389 428.5,244.5 Z"/></g>
<g><path style="opacity:1" fill="#f78624" d="M 418.5,267.5 C 419.5,267.5 420.5,267.5 421.5,267.5C 421.227,269.451 421.893,270.951 423.5,272C 423.167,272.333 422.833,272.667 422.5,273C 424.181,275.442 426.181,276.775 428.5,277C 427.542,278.147 427.875,279.147 429.5,280C 435.682,282.794 442.015,285.127 448.5,287C 454.073,286.773 459.573,286.94 465,287.5C 469.501,285.753 474.001,284.92 478.5,285C 489.495,284.5 500.495,284.333 511.5,284.5C 511.5,286.167 511.5,287.833 511.5,289.5C 490.151,288.787 468.984,290.12 448,293.5C 443.457,291.316 438.623,289.816 433.5,289C 427.773,286.733 422.773,283.567 418.5,279.5C 418.5,275.5 418.5,271.5 418.5,267.5 Z"/></g>
<g><path style="opacity:1" fill="#f57e27" d="M 418.5,279.5 C 422.773,283.567 427.773,286.733 433.5,289C 438.623,289.816 443.457,291.316 448,293.5C 468.984,290.12 490.151,288.787 511.5,289.5C 511.5,292.167 511.5,294.833 511.5,297.5C 499.162,297.333 486.829,297.5 474.5,298C 471.016,299.602 467.349,300.768 463.5,301.5C 462.914,301.291 462.414,300.957 462,300.5C 458.384,301.238 454.718,301.904 451,302.5C 450.055,302.095 449.388,301.428 449,300.5C 448.667,301.167 448.333,301.833 448,302.5C 445.197,301.643 442.197,301.643 439,302.5C 437.333,301.833 435.667,301.167 434,300.5C 431.945,300.848 429.945,300.181 428,298.5C 427,298.833 426,299.167 425,299.5C 423.601,298.773 422.101,298.273 420.5,298C 421.258,296.636 420.758,295.469 419,294.5C 418.501,289.511 418.334,284.511 418.5,279.5 Z"/></g>
<g><path style="opacity:1" fill="#e84444" d="M 417.5,250.5 C 417.5,266.167 417.5,281.833 417.5,297.5C 417.5,306.167 417.5,314.833 417.5,323.5C 405.5,323.5 393.5,323.5 381.5,323.5C 381.322,322.305 380.989,321.138 380.5,320C 382.939,317.446 382.939,314.946 380.5,312.5C 381.383,311.452 382.05,310.285 382.5,309C 382.108,307.989 381.441,307.489 380.5,307.5C 381.171,305.493 382.171,303.66 383.5,302C 383.241,300.739 382.574,299.739 381.5,299C 382.1,296.602 382.1,293.935 381.5,291C 382.357,290.311 383.023,289.478 383.5,288.5C 383.167,285.833 382.833,283.167 382.5,280.5C 384.353,278.309 384.687,275.975 383.5,273.5C 385.973,271.902 385.973,270.402 383.5,269C 383.387,267.253 383.721,265.42 384.5,263.5C 387.479,265.812 390.146,268.479 392.5,271.5C 393.365,272.583 394.365,272.749 395.5,272C 402.702,264.631 410.035,257.464 417.5,250.5 Z"/></g>
<g><path style="opacity:1" fill="#a76dbc" d="M 186.5,286.5 C 186.666,291.511 186.499,296.511 186,301.5C 155.299,332.368 124.465,363.035 93.5,393.5C 93.5,388.5 93.5,383.5 93.5,378.5C 124.5,347.833 155.5,317.167 186.5,286.5 Z"/></g>
<g><path style="opacity:1" fill="#db4341" d="M 372.5,251.5 C 373.5,252.167 374.5,252.833 375.5,253.5C 378.5,256.833 381.5,260.167 384.5,263.5C 383.721,265.42 383.387,267.253 383.5,269C 385.973,270.402 385.973,271.902 383.5,273.5C 384.687,275.975 384.353,278.309 382.5,280.5C 382.833,283.167 383.167,285.833 383.5,288.5C 383.023,289.478 382.357,290.311 381.5,291C 382.1,293.935 382.1,296.602 381.5,299C 382.574,299.739 383.241,300.739 383.5,302C 382.171,303.66 381.171,305.493 380.5,307.5C 381.441,307.489 382.108,307.989 382.5,309C 382.05,310.285 381.383,311.452 380.5,312.5C 382.939,314.946 382.939,317.446 380.5,320C 380.989,321.138 381.322,322.305 381.5,323.5C 377.167,323.5 372.833,323.5 368.5,323.5C 367.167,323.5 365.833,323.5 364.5,323.5C 365.575,321.843 366.242,320.009 366.5,318C 365.027,315.907 365.36,314.241 367.5,313C 366.833,311 366.167,309 365.5,307C 366.357,306.311 367.023,305.478 367.5,304.5C 366.098,303.158 366.431,302.324 368.5,302C 366.109,301.309 366.109,300.309 368.5,299C 367.167,297.667 367.167,296.333 368.5,295C 367.833,294.333 367.167,293.667 366.5,293C 367.358,291.212 368.358,289.378 369.5,287.5C 369.814,284.441 369.481,281.607 368.5,279C 368.955,276.688 369.955,274.688 371.5,273C 370.672,272.085 369.672,271.419 368.5,271C 370.821,268.88 371.488,266.38 370.5,263.5C 371.582,261.116 372.249,258.95 372.5,257C 369.833,256.333 369.833,255.667 372.5,255C 371.316,253.855 371.316,252.688 372.5,251.5 Z"/></g>
<g><path style="opacity:1" fill="#a766b7" d="M 187.5,262.5 C 187.5,266.167 187.5,269.833 187.5,273.5C 187.5,277.167 187.5,280.833 187.5,284.5C 187.5,288.167 187.5,291.833 187.5,295.5C 187.19,298.713 187.523,301.713 188.5,304.5C 189.276,308.052 190.609,311.386 192.5,314.5C 161.5,345.833 130.5,377.167 99.5,408.5C 97.3199,406.137 95.6532,403.47 94.5,400.5C 94.0074,398.194 93.6741,395.861 93.5,393.5C 124.465,363.035 155.299,332.368 186,301.5C 186.499,296.511 186.666,291.511 186.5,286.5C 186.5,280.833 186.5,275.167 186.5,269.5C 186.198,266.941 186.532,264.607 187.5,262.5 Z"/></g>
<g><path style="opacity:1" fill="#f47530" d="M 417.5,117.5 C 418.498,143.661 418.831,169.995 418.5,196.5C 418.5,204.167 418.5,211.833 418.5,219.5C 418.5,235.5 418.5,251.5 418.5,267.5C 418.5,271.5 418.5,275.5 418.5,279.5C 418.334,284.511 418.501,289.511 419,294.5C 420.758,295.469 421.258,296.636 420.5,298C 422.101,298.273 423.601,298.773 425,299.5C 426,299.167 427,298.833 428,298.5C 429.945,300.181 431.945,300.848 434,300.5C 435.667,301.167 437.333,301.833 439,302.5C 442.197,301.643 445.197,301.643 448,302.5C 448.333,301.833 448.667,301.167 449,300.5C 449.388,301.428 450.055,302.095 451,302.5C 454.718,301.904 458.384,301.238 462,300.5C 462.414,300.957 462.914,301.291 463.5,301.5C 467.349,300.768 471.016,299.602 474.5,298C 486.829,297.5 499.162,297.333 511.5,297.5C 511.5,300.167 511.5,302.833 511.5,305.5C 511.167,305.5 510.833,305.5 510.5,305.5C 510.5,304.167 510.5,302.833 510.5,301.5C 498.829,301.333 487.162,301.5 475.5,302C 455.953,306.782 436.953,307.948 418.5,305.5C 418.806,302.615 418.473,299.948 417.5,297.5C 417.5,281.833 417.5,266.167 417.5,250.5C 417.5,237.5 417.5,224.5 417.5,211.5C 417.5,201.5 417.5,191.5 417.5,181.5C 417.5,175.167 417.5,168.833 417.5,162.5C 417.5,153.833 417.5,145.167 417.5,136.5C 417.5,130.167 417.5,123.833 417.5,117.5 Z"/></g>
<g><path style="opacity:1" fill="#88c4fd" d="M 93.5,259.5 C 93.5,263.167 93.5,266.833 93.5,270.5C 93.5,275.5 93.5,280.5 93.5,285.5C 93.5,289.833 93.5,294.167 93.5,298.5C 92.6703,307.324 92.1703,316.324 92,325.5C 61.2987,356.368 30.4653,387.035 -0.5,417.5C -0.5,404.5 -0.5,391.5 -0.5,378.5C 30.4653,348.035 61.2987,317.368 92,286.5C 92.4995,280.175 92.6662,273.842 92.5,267.5C 92.1936,264.615 92.5269,261.948 93.5,259.5 Z"/></g>
<g><path style="opacity:1" fill="#f16931" d="M 510.5,305.5 C 510.598,307.553 509.931,309.22 508.5,310.5C 508.5,309.5 508.5,308.5 508.5,307.5C 498.161,307.334 487.828,307.5 477.5,308C 463.867,311.927 450.034,315.094 436,317.5C 430.319,317.17 424.486,317.17 418.5,317.5C 418.5,313.5 418.5,309.5 418.5,305.5C 436.953,307.948 455.953,306.782 475.5,302C 487.162,301.5 498.829,301.333 510.5,301.5C 510.5,302.833 510.5,304.167 510.5,305.5 Z"/></g>
<g><path style="opacity:1" fill="#ef6035" d="M 508.5,310.5 C 508.672,311.492 508.338,312.158 507.5,312.5C 502.712,311.172 497.546,310.505 492,310.5C 486.833,310.667 481.667,310.833 476.5,311C 462.279,315.592 447.779,319.092 433,321.5C 428.528,321.012 423.694,321.012 418.5,321.5C 418.5,320.167 418.5,318.833 418.5,317.5C 424.486,317.17 430.319,317.17 436,317.5C 450.034,315.094 463.867,311.927 477.5,308C 487.828,307.5 498.161,307.334 508.5,307.5C 508.5,308.5 508.5,309.5 508.5,310.5 Z"/></g>
<g><path style="opacity:1" fill="#a761b3" d="M 192.5,314.5 C 193.167,314.833 193.833,315.167 194.5,315.5C 194.833,316.5 195.5,317.167 196.5,317.5C 197.167,318.167 197.833,318.833 198.5,319.5C 168.035,350.465 137.368,381.299 106.5,412C 107.252,412.671 107.586,413.504 107.5,414.5C 104.109,413.471 101.443,411.471 99.5,408.5C 130.5,377.167 161.5,345.833 192.5,314.5 Z"/></g>
<g><path style="opacity:1" fill="#ee5c38" d="M 417.5,297.5 C 418.473,299.948 418.806,302.615 418.5,305.5C 418.5,309.5 418.5,313.5 418.5,317.5C 418.5,318.833 418.5,320.167 418.5,321.5C 423.694,321.012 428.528,321.012 433,321.5C 447.779,319.092 462.279,315.592 476.5,311C 481.667,310.833 486.833,310.667 492,310.5C 497.546,310.505 502.712,311.172 507.5,312.5C 505.746,316.588 502.746,319.255 498.5,320.5C 498.611,319.883 498.944,319.383 499.5,319C 484.937,317.597 470.604,318.597 456.5,322C 456.167,322.333 455.833,322.667 455.5,323C 466.828,323.5 478.162,323.667 489.5,323.5C 466.006,324.498 442.339,324.831 418.5,324.5C 418.167,324.5 417.833,324.5 417.5,324.5C 417.5,324.167 417.5,323.833 417.5,323.5C 417.5,314.833 417.5,306.167 417.5,297.5 Z"/></g>
<g><path style="opacity:1" fill="#ea4b40" d="M 498.5,320.5 C 496.044,322.868 493.044,323.868 489.5,323.5C 478.162,323.667 466.828,323.5 455.5,323C 455.833,322.667 456.167,322.333 456.5,322C 470.604,318.597 484.937,317.597 499.5,319C 498.944,319.383 498.611,319.883 498.5,320.5 Z"/></g>
<g><path style="opacity:1" fill="#a85baf" d="M 198.5,319.5 C 200.713,320.773 203.046,321.773 205.5,322.5C 207.042,323.301 208.708,323.634 210.5,323.5C 211.919,324.451 213.585,324.784 215.5,324.5C 184.833,355.5 154.167,386.5 123.5,417.5C 121.5,417.5 119.5,417.5 117.5,417.5C 113.714,417.68 110.381,416.68 107.5,414.5C 107.586,413.504 107.252,412.671 106.5,412C 137.368,381.299 168.035,350.465 198.5,319.5 Z"/></g>
<g><path style="opacity:1" fill="#a954aa" d="M 215.5,324.5 C 221.5,324.5 227.5,324.5 233.5,324.5C 202.833,355.5 172.167,386.5 141.5,417.5C 135.5,417.5 129.5,417.5 123.5,417.5C 154.167,386.5 184.833,355.5 215.5,324.5 Z"/></g>
<g><path style="opacity:1" fill="#ab4ea5" d="M 233.5,324.5 C 240.175,324.334 246.842,324.5 253.5,325C 222.632,355.701 191.965,386.535 161.5,417.5C 160.5,417.5 159.5,417.5 158.5,417.5C 152.833,417.5 147.167,417.5 141.5,417.5C 172.167,386.5 202.833,355.5 233.5,324.5 Z"/></g>
<g><path style="opacity:1" fill="#ac479f" d="M 210.5,323.5 C 212.833,323.5 215.167,323.5 217.5,323.5C 220.833,323.5 224.167,323.5 227.5,323.5C 231.5,323.5 235.5,323.5 239.5,323.5C 243.5,323.5 247.5,323.5 251.5,323.5C 257.5,323.5 263.5,323.5 269.5,323.5C 270.568,324.434 271.901,324.768 273.5,324.5C 242.833,355.5 212.167,386.5 181.5,417.5C 174.833,417.5 168.167,417.5 161.5,417.5C 191.965,386.535 222.632,355.701 253.5,325C 246.842,324.5 240.175,324.334 233.5,324.5C 227.5,324.5 221.5,324.5 215.5,324.5C 213.585,324.784 211.919,324.451 210.5,323.5 Z"/></g>
<g><path style="opacity:1" fill="#af419a" d="M 273.5,324.5 C 280.5,324.5 287.5,324.5 294.5,324.5C 263.833,355.5 233.167,386.5 202.5,417.5C 195.5,417.5 188.5,417.5 181.5,417.5C 212.167,386.5 242.833,355.5 273.5,324.5 Z"/></g>
<g><path style="opacity:1" fill="#b13b94" d="M 294.5,324.5 C 301.175,324.334 307.842,324.5 314.5,325C 283.632,355.701 252.965,386.535 222.5,417.5C 215.833,417.5 209.167,417.5 202.5,417.5C 233.167,386.5 263.833,355.5 294.5,324.5 Z"/></g>
<g><path style="opacity:1" fill="#e93992" d="M 368.5,323.5 C 372.833,323.5 377.167,323.5 381.5,323.5C 393.5,323.5 405.5,323.5 417.5,323.5C 417.5,323.833 417.5,324.167 417.5,324.5C 407.833,324.5 398.167,324.5 388.5,324.5C 384.167,324.5 379.833,324.5 375.5,324.5C 376.112,328.163 376.279,331.83 376,335.5C 375.333,334.167 374.667,334.167 374,335.5C 373.59,336.901 373.09,338.234 372.5,339.5C 372.5,341.167 372.5,342.833 372.5,344.5C 370.362,344.297 368.695,343.297 367.5,341.5C 366.828,342.949 366.161,344.282 365.5,345.5C 364.396,343.611 363.063,341.945 361.5,340.5C 361.67,339.178 361.337,338.011 360.5,337C 362.096,333.201 362.929,329.368 363,325.5C 364.948,324.891 366.782,324.224 368.5,323.5 Z"/></g>
<g><path style="opacity:0.994" fill="#fd33aa" d="M 388.5,324.5 C 398.167,324.5 407.833,324.5 417.5,324.5C 417.833,324.5 418.167,324.5 418.5,324.5C 418.5,331.167 418.5,337.833 418.5,344.5C 417.287,343.425 415.787,342.759 414,342.5C 405.854,344.13 397.688,344.463 389.5,343.5C 387.969,342.387 386.969,340.887 386.5,339C 386.63,334.251 387.297,329.418 388.5,324.5 Z"/></g>
<g><path style="opacity:1" fill="#b4348e" d="M 269.5,323.5 C 287.5,323.5 305.5,323.5 323.5,323.5C 323.5,328.167 323.5,332.833 323.5,337.5C 296.5,363.833 269.833,390.5 243.5,417.5C 239.833,417.5 236.167,417.5 232.5,417.5C 229.167,417.5 225.833,417.5 222.5,417.5C 252.965,386.535 283.632,355.701 314.5,325C 307.842,324.5 301.175,324.334 294.5,324.5C 287.5,324.5 280.5,324.5 273.5,324.5C 271.901,324.768 270.568,324.434 269.5,323.5 Z"/></g>
<g><path style="opacity:1" fill="#7fc0fc" d="M 93.5,298.5 C 93.5,299.167 93.5,299.833 93.5,300.5C 93.5,304.833 93.5,309.167 93.5,313.5C 93.5,318.833 93.5,324.167 93.5,329.5C 93.5,333.167 93.5,336.833 93.5,340.5C 92.5318,342.607 92.1984,344.941 92.5,347.5C 65.368,374.132 38.368,400.965 11.5,428C 7.5092,428.642 3.5092,429.142 -0.5,429.5C -0.5,425.5 -0.5,421.5 -0.5,417.5C 30.4653,387.035 61.2987,356.368 92,325.5C 92.1703,316.324 92.6703,307.324 93.5,298.5 Z"/></g>
<g><path style="opacity:1" fill="#c93674" d="M 345.5,324.5 C 346.5,324.5 347.5,324.5 348.5,324.5C 348.67,328.644 348.003,332.644 346.5,336.5C 347.038,338.764 346.704,341.097 345.5,343.5C 345.863,344.183 346.196,344.85 346.5,345.5C 344.714,345.957 342.714,345.957 340.5,345.5C 337.947,346.651 336.614,345.651 336.5,342.5C 338.1,336.725 339.1,330.725 339.5,324.5C 341.5,324.5 343.5,324.5 345.5,324.5 Z"/></g>
<g><path style="opacity:1" fill="#d73781" d="M 345.5,324.5 C 345.5,324.167 345.5,323.833 345.5,323.5C 347.833,323.5 350.167,323.5 352.5,323.5C 356.5,323.5 360.5,323.5 364.5,323.5C 365.833,323.5 367.167,323.5 368.5,323.5C 366.782,324.224 364.948,324.891 363,325.5C 362.929,329.368 362.096,333.201 360.5,337C 361.337,338.011 361.67,339.178 361.5,340.5C 360.678,342.389 359.845,344.389 359,346.5C 358.667,345.833 358.333,345.167 358,344.5C 357.184,345.823 356.017,346.489 354.5,346.5C 353.343,344.862 352.176,343.196 351,341.5C 350.798,343.256 350.298,344.922 349.5,346.5C 348.583,345.873 347.583,345.539 346.5,345.5C 346.196,344.85 345.863,344.183 345.5,343.5C 346.704,341.097 347.038,338.764 346.5,336.5C 348.003,332.644 348.67,328.644 348.5,324.5C 347.5,324.5 346.5,324.5 345.5,324.5 Z"/></g>
<g><path style="opacity:1" fill="#b13363" d="M 323.5,210.5 C 324.498,245.996 324.832,281.663 324.5,317.5C 324.5,319.5 324.5,321.5 324.5,323.5C 327.167,323.5 329.833,323.5 332.5,323.5C 335.833,323.5 339.167,323.5 342.5,323.5C 343.5,323.5 344.5,323.5 345.5,323.5C 345.5,323.833 345.5,324.167 345.5,324.5C 343.5,324.5 341.5,324.5 339.5,324.5C 339.1,330.725 338.1,336.725 336.5,342.5C 336.872,339.978 336.039,337.978 334,336.5C 333.28,343.21 332.28,349.876 331,356.5C 330.517,355.552 330.351,354.552 330.5,353.5C 329.5,353.5 328.5,353.5 327.5,353.5C 327.66,355.199 327.494,356.866 327,358.5C 326.692,357.692 326.192,357.025 325.5,356.5C 324.501,366.812 324.168,377.145 324.5,387.5C 324.5,397.5 324.5,407.5 324.5,417.5C 324.167,417.5 323.833,417.5 323.5,417.5C 323.5,402.833 323.5,388.167 323.5,373.5C 323.5,361.5 323.5,349.5 323.5,337.5C 323.5,332.833 323.5,328.167 323.5,323.5C 323.5,299.5 323.5,275.5 323.5,251.5C 323.5,247.5 323.5,243.5 323.5,239.5C 323.5,235.5 323.5,231.5 323.5,227.5C 323.5,224.167 323.5,220.833 323.5,217.5C 323.5,215.167 323.5,212.833 323.5,210.5 Z"/></g>
<g><path style="opacity:1" fill="#79bdfc" d="M 92.5,347.5 C 92.6664,355.174 92.4997,362.841 92,370.5C 73.1667,389.333 54.3333,408.167 35.5,427C 23.5682,429.946 11.5682,432.446 -0.5,434.5C -0.5,432.833 -0.5,431.167 -0.5,429.5C 3.5092,429.142 7.5092,428.642 11.5,428C 38.368,400.965 65.368,374.132 92.5,347.5 Z"/></g>
<g><path style="opacity:1" fill="#b82d88" d="M 323.5,337.5 C 323.5,349.5 323.5,361.5 323.5,373.5C 308.5,387.833 293.833,402.5 279.5,417.5C 267.5,417.5 255.5,417.5 243.5,417.5C 269.833,390.5 296.5,363.833 323.5,337.5 Z"/></g>
<g><path style="opacity:1" fill="#fa2a9b" d="M 388.5,324.5 C 387.297,329.418 386.63,334.251 386.5,339C 386.969,340.887 387.969,342.387 389.5,343.5C 397.688,344.463 405.854,344.13 414,342.5C 415.787,342.759 417.287,343.425 418.5,344.5C 418.5,348.5 418.5,352.5 418.5,356.5C 417.584,356.018 416.584,355.685 415.5,355.5C 406.848,356.529 398.182,357.029 389.5,357C 384.635,354.193 380.969,350.86 378.5,347C 378.957,346.586 379.291,346.086 379.5,345.5C 376.178,344.502 373.845,342.502 372.5,339.5C 373.09,338.234 373.59,336.901 374,335.5C 374.667,334.167 375.333,334.167 376,335.5C 376.279,331.83 376.112,328.163 375.5,324.5C 379.833,324.5 384.167,324.5 388.5,324.5 Z"/></g>
<g><path style="opacity:1" fill="#d12b6e" d="M 354.5,346.5 C 354.085,350.287 354.085,353.954 354.5,357.5C 353.902,359.802 353.569,361.802 353.5,363.5C 352.288,362.77 351.288,361.77 350.5,360.5C 349.885,363.436 348.718,366.103 347,368.5C 344.959,367.577 342.792,367.244 340.5,367.5C 340.703,365.61 340.037,364.11 338.5,363C 338.973,360.14 340.306,357.807 342.5,356C 340.737,352.757 340.071,349.257 340.5,345.5C 342.714,345.957 344.714,345.957 346.5,345.5C 347.583,345.539 348.583,345.873 349.5,346.5C 350.298,344.922 350.798,343.256 351,341.5C 352.176,343.196 353.343,344.862 354.5,346.5 Z"/></g>
<g><path style="opacity:1" fill="#e6277d" d="M 361.5,340.5 C 363.063,341.945 364.396,343.611 365.5,345.5C 365.369,346.239 365.536,346.906 366,347.5C 366.654,346.304 367.154,346.304 367.5,347.5C 366.894,349.709 366.227,351.876 365.5,354C 367.956,358.123 371.122,361.623 375,364.5C 375.41,365.901 375.91,367.234 376.5,368.5C 375.527,369.791 374.527,369.791 373.5,368.5C 372.702,368.957 372.369,369.624 372.5,370.5C 370.435,370.517 368.435,370.85 366.5,371.5C 364.9,370.748 363.4,369.748 362,368.5C 359.049,365.166 356.549,361.5 354.5,357.5C 354.085,353.954 354.085,350.287 354.5,346.5C 356.017,346.489 357.184,345.823 358,344.5C 358.333,345.167 358.667,345.833 359,346.5C 359.845,344.389 360.678,342.389 361.5,340.5 Z"/></g>
<g><path style="opacity:1" fill="#f5228b" d="M 372.5,339.5 C 373.845,342.502 376.178,344.502 379.5,345.5C 379.291,346.086 378.957,346.586 378.5,347C 380.969,350.86 384.635,354.193 389.5,357C 398.182,357.029 406.848,356.529 415.5,355.5C 416.584,355.685 417.584,356.018 418.5,356.5C 418.5,361.833 418.5,367.167 418.5,372.5C 417.566,371.432 417.232,370.099 417.5,368.5C 407.478,368.511 397.478,369.011 387.5,370C 391.833,370.333 396.167,370.667 400.5,371C 395.946,372.097 391.446,373.263 387,374.5C 383.612,372.272 380.112,370.272 376.5,368.5C 375.91,367.234 375.41,365.901 375,364.5C 371.122,361.623 367.956,358.123 365.5,354C 366.227,351.876 366.894,349.709 367.5,347.5C 367.154,346.304 366.654,346.304 366,347.5C 365.536,346.906 365.369,346.239 365.5,345.5C 366.161,344.282 366.828,342.949 367.5,341.5C 368.695,343.297 370.362,344.297 372.5,344.5C 372.5,342.833 372.5,341.167 372.5,339.5 Z"/></g>
<g><path style="opacity:1" fill="#bf265b" d="M 336.5,342.5 C 336.614,345.651 337.947,346.651 340.5,345.5C 340.071,349.257 340.737,352.757 342.5,356C 340.306,357.807 338.973,360.14 338.5,363C 340.037,364.11 340.703,365.61 340.5,367.5C 340.423,368.75 339.756,369.583 338.5,370C 339.728,371.49 339.728,372.99 338.5,374.5C 338.799,376.604 338.466,378.604 337.5,380.5C 335.866,380.032 334.7,379.032 334,377.5C 333.463,380.187 333.963,382.687 335.5,385C 334.809,386.067 334.309,387.234 334,388.5C 333.047,386.545 331.713,384.878 330,383.5C 329.601,383.728 329.435,384.062 329.5,384.5C 328.778,384.082 328.278,383.416 328,382.5C 327.331,384.59 326.164,386.257 324.5,387.5C 324.168,377.145 324.501,366.812 325.5,356.5C 326.192,357.025 326.692,357.692 327,358.5C 327.494,356.866 327.66,355.199 327.5,353.5C 328.5,353.5 329.5,353.5 330.5,353.5C 330.351,354.552 330.517,355.552 331,356.5C 332.28,349.876 333.28,343.21 334,336.5C 336.039,337.978 336.872,339.978 336.5,342.5 Z"/></g>
<g><path style="opacity:1" fill="#71b9fc" d="M 93.5,340.5 C 93.5,343.167 93.5,345.833 93.5,348.5C 93.5,352.833 93.5,357.167 93.5,361.5C 93.5,367.167 93.5,372.833 93.5,378.5C 93.5,383.5 93.5,388.5 93.5,393.5C 93.6741,395.861 94.0074,398.194 94.5,400.5C 86.7588,409.746 78.4255,418.579 69.5,427C 66.217,428.023 62.8836,428.857 59.5,429.5C 58.09,429.868 57.09,430.701 56.5,432C 37.2651,433.463 18.2651,435.963 -0.5,439.5C -0.5,437.833 -0.5,436.167 -0.5,434.5C 11.5682,432.446 23.5682,429.946 35.5,427C 54.3333,408.167 73.1667,389.333 92,370.5C 92.4997,362.841 92.6664,355.174 92.5,347.5C 92.1984,344.941 92.5318,342.607 93.5,340.5 Z"/></g>
<g><path style="opacity:1" fill="#f71781" d="M 376.5,368.5 C 380.112,370.272 383.612,372.272 387,374.5C 391.446,373.263 395.946,372.097 400.5,371C 396.167,370.667 391.833,370.333 387.5,370C 397.478,369.011 407.478,368.511 417.5,368.5C 417.232,370.099 417.566,371.432 418.5,372.5C 418.825,380.019 418.492,387.352 417.5,394.5C 417.5,390.167 417.5,385.833 417.5,381.5C 407.114,381.191 396.781,381.524 386.5,382.5C 381.802,378.492 377.135,374.492 372.5,370.5C 372.369,369.624 372.702,368.957 373.5,368.5C 374.527,369.791 375.527,369.791 376.5,368.5 Z"/></g>
<g><path style="opacity:1" fill="#e71b71" d="M 354.5,357.5 C 356.549,361.5 359.049,365.166 362,368.5C 363.4,369.748 364.9,370.748 366.5,371.5C 371.024,377.572 376.358,382.072 382.5,385C 380.98,386.728 379.314,388.228 377.5,389.5C 374.853,387.189 372.186,384.856 369.5,382.5C 368.186,383.313 367.019,384.313 366,385.5C 365.683,383.699 365.016,383.366 364,384.5C 363.184,383.177 362.017,382.511 360.5,382.5C 358.558,380.609 356.725,378.609 355,376.5C 354.448,372.217 353.948,367.883 353.5,363.5C 353.569,361.802 353.902,359.802 354.5,357.5 Z"/></g>
<g><path style="opacity:1" fill="#be237e" d="M 323.5,373.5 C 323.5,388.167 323.5,402.833 323.5,417.5C 308.833,417.5 294.167,417.5 279.5,417.5C 293.833,402.5 308.5,387.833 323.5,373.5 Z"/></g>
<g><path style="opacity:1" fill="#f31074" d="M 372.5,370.5 C 377.135,374.492 381.802,378.492 386.5,382.5C 396.781,381.524 407.114,381.191 417.5,381.5C 417.5,385.833 417.5,390.167 417.5,394.5C 417.784,396.415 417.451,398.081 416.5,399.5C 416.5,398.167 416.5,396.833 416.5,395.5C 404.802,395.208 393.135,395.541 381.5,396.5C 377.743,395.167 376.409,392.833 377.5,389.5C 379.314,388.228 380.98,386.728 382.5,385C 376.358,382.072 371.024,377.572 366.5,371.5C 368.435,370.85 370.435,370.517 372.5,370.5 Z"/></g>
<g><path style="opacity:1" fill="#d81b63" d="M 353.5,363.5 C 353.948,367.883 354.448,372.217 355,376.5C 356.725,378.609 358.558,380.609 360.5,382.5C 360.99,386.297 361.657,390.297 362.5,394.5C 362.5,395.5 362.5,396.5 362.5,397.5C 361.041,397.433 359.708,397.766 358.5,398.5C 358.631,397.761 358.464,397.094 358,396.5C 355.277,394.641 352.777,392.641 350.5,390.5C 346.466,385.109 342.466,379.776 338.5,374.5C 339.728,372.99 339.728,371.49 338.5,370C 339.756,369.583 340.423,368.75 340.5,367.5C 342.792,367.244 344.959,367.577 347,368.5C 348.718,366.103 349.885,363.436 350.5,360.5C 351.288,361.77 352.288,362.77 353.5,363.5 Z"/></g>
<g><path style="opacity:1" fill="#c81953" d="M 338.5,374.5 C 342.466,379.776 346.466,385.109 350.5,390.5C 349.811,391.774 348.977,391.774 348,390.5C 345.261,394.08 345.094,397.914 347.5,402C 346.237,404.464 344.237,405.63 341.5,405.5C 341.737,406.791 341.404,407.791 340.5,408.5C 339.969,406.456 338.802,404.789 337,403.5C 336.187,401.564 335.687,399.564 335.5,397.5C 334.178,397.33 333.011,397.663 332,398.5C 330.768,393.923 329.935,389.256 329.5,384.5C 329.435,384.062 329.601,383.728 330,383.5C 331.713,384.878 333.047,386.545 334,388.5C 334.309,387.234 334.809,386.067 335.5,385C 333.963,382.687 333.463,380.187 334,377.5C 334.7,379.032 335.866,380.032 337.5,380.5C 338.466,378.604 338.799,376.604 338.5,374.5 Z"/></g>
<g><path style="opacity:1" fill="#ec0d6a" d="M 360.5,382.5 C 362.017,382.511 363.184,383.177 364,384.5C 365.016,383.366 365.683,383.699 366,385.5C 367.019,384.313 368.186,383.313 369.5,382.5C 372.186,384.856 374.853,387.189 377.5,389.5C 376.409,392.833 377.743,395.167 381.5,396.5C 393.135,395.541 404.802,395.208 416.5,395.5C 416.5,396.833 416.5,398.167 416.5,399.5C 416.206,402.754 414.873,405.421 412.5,407.5C 402.884,405.687 392.884,404.854 382.5,405C 380.091,403.293 377.425,402.46 374.5,402.5C 374.457,399.912 373.457,397.746 371.5,396C 371.833,395.667 372.167,395.333 372.5,395C 370.939,394.682 369.772,393.849 369,392.5C 367.145,394.876 364.978,395.543 362.5,394.5C 361.657,390.297 360.99,386.297 360.5,382.5 Z"/></g>
<g><path style="opacity:1" fill="#b81644" d="M 329.5,384.5 C 329.935,389.256 330.768,393.923 332,398.5C 333.011,397.663 334.178,397.33 335.5,397.5C 335.687,399.564 336.187,401.564 337,403.5C 338.802,404.789 339.969,406.456 340.5,408.5C 339.883,408.389 339.383,408.056 339,407.5C 337.732,410.762 337.899,414.095 339.5,417.5C 334.5,417.5 329.5,417.5 324.5,417.5C 324.5,407.5 324.5,397.5 324.5,387.5C 326.164,386.257 327.331,384.59 328,382.5C 328.278,383.416 328.778,384.082 329.5,384.5 Z"/></g>
<g><path style="opacity:1" fill="#d00f50" d="M 350.5,390.5 C 352.777,392.641 355.277,394.641 358,396.5C 358.464,397.094 358.631,397.761 358.5,398.5C 358.026,402.136 359.026,405.303 361.5,408C 360.377,409.044 359.044,409.71 357.5,410C 359.548,411.681 361.715,413.181 364,414.5C 364.414,414.043 364.914,413.709 365.5,413.5C 366.262,414.628 366.929,415.795 367.5,417C 358.173,417.5 348.839,417.666 339.5,417.5C 337.899,414.095 337.732,410.762 339,407.5C 339.383,408.056 339.883,408.389 340.5,408.5C 341.404,407.791 341.737,406.791 341.5,405.5C 344.237,405.63 346.237,404.464 347.5,402C 345.094,397.914 345.261,394.08 348,390.5C 348.977,391.774 349.811,391.774 350.5,390.5 Z"/></g>
<g><path style="opacity:1" fill="#e4095d" d="M 412.5,407.5 C 411.409,410.428 409.409,412.594 406.5,414C 402.479,416.34 398.146,417.674 393.5,418C 370.502,418.5 347.502,418.667 324.5,418.5C 324.5,418.167 324.5,417.833 324.5,417.5C 329.5,417.5 334.5,417.5 339.5,417.5C 348.839,417.666 358.173,417.5 367.5,417C 366.929,415.795 366.262,414.628 365.5,413.5C 364.914,413.709 364.414,414.043 364,414.5C 361.715,413.181 359.548,411.681 357.5,410C 359.044,409.71 360.377,409.044 361.5,408C 359.026,405.303 358.026,402.136 358.5,398.5C 359.708,397.766 361.041,397.433 362.5,397.5C 362.5,396.5 362.5,395.5 362.5,394.5C 364.978,395.543 367.145,394.876 369,392.5C 369.772,393.849 370.939,394.682 372.5,395C 372.167,395.333 371.833,395.667 371.5,396C 373.457,397.746 374.457,399.912 374.5,402.5C 377.425,402.46 380.091,403.293 382.5,405C 392.884,404.854 402.884,405.687 412.5,407.5 Z"/></g>
<g><path style="opacity:1" fill="#53a9f8" d="M 119.5,418.5 C 132.171,418.333 144.838,418.5 157.5,419C 154.5,422 151.5,425 148.5,428C 143.833,429.167 139.167,430.333 134.5,431.5C 133.09,431.868 132.09,432.701 131.5,434C 121.766,434.719 112.099,436.053 102.5,438C 102.167,438.333 101.833,438.667 101.5,439C 106.833,439.333 112.167,439.667 117.5,440C 105.306,442.22 93.3064,444.72 81.5,447.5C 65.1457,448.55 49.1457,450.883 33.5,454.5C 21.9361,455.247 10.6027,456.913 -0.5,459.5C -0.5,456.5 -0.5,453.5 -0.5,450.5C 10.3947,450.367 21.0613,448.867 31.5,446C 44.1667,444 56.8333,442 69.5,440C 64.8333,439.667 60.1667,439.333 55.5,439C 73.7294,435.257 92.0627,431.59 110.5,428C 113.704,424.964 116.704,421.797 119.5,418.5 Z"/></g>
<g><path style="opacity:1" fill="#48a4fa" d="M 117.5,417.5 C 119.5,417.5 121.5,417.5 123.5,417.5C 129.5,417.5 135.5,417.5 141.5,417.5C 147.167,417.5 152.833,417.5 158.5,417.5C 171.994,418.331 185.661,418.831 199.5,419C 196.465,422.37 193.132,425.37 189.5,428C 175.007,431.539 160.674,435.206 146.5,439C 151.833,439.333 157.167,439.667 162.5,440C 151.404,442.694 140.404,445.194 129.5,447.5C 113.5,447.5 97.5,447.5 81.5,447.5C 93.3064,444.72 105.306,442.22 117.5,440C 112.167,439.667 106.833,439.333 101.5,439C 101.833,438.667 102.167,438.333 102.5,438C 112.099,436.053 121.766,434.719 131.5,434C 132.09,432.701 133.09,431.868 134.5,431.5C 139.167,430.333 143.833,429.167 148.5,428C 151.5,425 154.5,422 157.5,419C 144.838,418.5 132.171,418.333 119.5,418.5C 118.508,418.672 117.842,418.338 117.5,417.5 Z"/></g>
<g><path style="opacity:1" fill="#3e9dfa" d="M 158.5,417.5 C 159.5,417.5 160.5,417.5 161.5,417.5C 168.167,417.5 174.833,417.5 181.5,417.5C 188.5,417.5 195.5,417.5 202.5,417.5C 209.167,417.5 215.833,417.5 222.5,417.5C 225.833,417.5 229.167,417.5 232.5,417.5C 233.919,418.451 235.585,418.784 237.5,418.5C 234.704,421.797 231.704,424.964 228.5,428C 215.999,431.207 203.666,434.874 191.5,439C 197.833,439.333 204.167,439.667 210.5,440C 210.167,440.333 209.833,440.667 209.5,441C 200.926,442.726 192.592,444.892 184.5,447.5C 182.833,447.5 181.167,447.5 179.5,447.5C 169.167,447.5 158.833,447.5 148.5,447.5C 142.167,447.5 135.833,447.5 129.5,447.5C 140.404,445.194 151.404,442.694 162.5,440C 157.167,439.667 151.833,439.333 146.5,439C 160.674,435.206 175.007,431.539 189.5,428C 193.132,425.37 196.465,422.37 199.5,419C 185.661,418.831 171.994,418.331 158.5,417.5 Z"/></g>
<g><path style="opacity:1" fill="#2f98fa" d="M 237.5,418.5 C 251.5,418.5 265.5,418.5 279.5,418.5C 276.704,421.797 273.704,424.964 270.5,428C 259.167,431.667 247.833,435.333 236.5,439C 241.833,439.667 247.167,439.667 252.5,439C 254.346,437.001 256.679,436.168 259.5,436.5C 261.167,436.667 262.833,436.833 264.5,437C 255.344,440.371 246.01,443.371 236.5,446C 235.944,446.383 235.611,446.883 235.5,447.5C 234.167,447.5 232.833,447.5 231.5,447.5C 215.833,447.5 200.167,447.5 184.5,447.5C 192.592,444.892 200.926,442.726 209.5,441C 209.833,440.667 210.167,440.333 210.5,440C 204.167,439.667 197.833,439.333 191.5,439C 203.666,434.874 215.999,431.207 228.5,428C 231.704,424.964 234.704,421.797 237.5,418.5 Z"/></g>
<g><path style="opacity:1" fill="#2492f9" d="M 279.5,418.5 C 292.171,418.333 304.838,418.5 317.5,419C 309.173,427.669 299.173,433.336 287.5,436C 290.943,436.221 291.276,437.221 288.5,439C 283.021,439.523 277.688,440.523 272.5,442C 268.541,444.138 264.541,445.971 260.5,447.5C 252.167,447.5 243.833,447.5 235.5,447.5C 235.611,446.883 235.944,446.383 236.5,446C 246.01,443.371 255.344,440.371 264.5,437C 262.833,436.833 261.167,436.667 259.5,436.5C 256.679,436.168 254.346,437.001 252.5,439C 247.167,439.667 241.833,439.667 236.5,439C 247.833,435.333 259.167,431.667 270.5,428C 273.704,424.964 276.704,421.797 279.5,418.5 Z"/></g>
<g><path style="opacity:1" fill="#1b8bf5" d="M 232.5,417.5 C 236.167,417.5 239.833,417.5 243.5,417.5C 255.5,417.5 267.5,417.5 279.5,417.5C 294.167,417.5 308.833,417.5 323.5,417.5C 323.833,417.5 324.167,417.5 324.5,417.5C 324.5,417.833 324.5,418.167 324.5,418.5C 324.5,432.833 324.5,447.167 324.5,461.5C 323.596,460.791 323.263,459.791 323.5,458.5C 310.829,458.667 298.162,458.5 285.5,458C 288.833,456.667 292.167,455.333 295.5,454C 287.167,453.667 278.833,453.333 270.5,453C 276.837,452.163 276.503,451.497 269.5,451C 274.953,450.637 280.286,449.637 285.5,448C 277.173,447.5 268.84,447.334 260.5,447.5C 264.541,445.971 268.541,444.138 272.5,442C 277.688,440.523 283.021,439.523 288.5,439C 291.276,437.221 290.943,436.221 287.5,436C 299.173,433.336 309.173,427.669 317.5,419C 304.838,418.5 292.171,418.333 279.5,418.5C 265.5,418.5 251.5,418.5 237.5,418.5C 235.585,418.784 233.919,418.451 232.5,417.5 Z"/></g>
<g><path style="opacity:1" fill="#60aff9" d="M 94.5,400.5 C 95.6532,403.47 97.3199,406.137 99.5,408.5C 101.443,411.471 104.109,413.471 107.5,414.5C 110.381,416.68 113.714,417.68 117.5,417.5C 117.842,418.338 118.508,418.672 119.5,418.5C 116.704,421.797 113.704,424.964 110.5,428C 92.0627,431.59 73.7294,435.257 55.5,439C 60.1667,439.333 64.8333,439.667 69.5,440C 56.8333,442 44.1667,444 31.5,446C 21.0613,448.867 10.3947,450.367 -0.5,450.5C -0.5,446.833 -0.5,443.167 -0.5,439.5C 18.2651,435.963 37.2651,433.463 56.5,432C 57.09,430.701 58.09,429.868 59.5,429.5C 62.8836,428.857 66.217,428.023 69.5,427C 78.4255,418.579 86.7588,409.746 94.5,400.5 Z"/></g>
<g><path style="opacity:1" fill="#419cee" d="M 81.5,447.5 C 97.5,447.5 113.5,447.5 129.5,447.5C 135.833,447.5 142.167,447.5 148.5,447.5C 130.131,452.086 111.465,455.753 92.5,458.5C 88.5191,459.021 84.5191,459.354 80.5,459.5C 64.1633,459.667 47.8299,459.5 31.5,459C 39.2008,457.885 46.8674,456.552 54.5,455C 47.5079,454.5 40.5079,454.334 33.5,454.5C 49.1457,450.883 65.1457,448.55 81.5,447.5 Z"/></g>
<g><path style="opacity:1" fill="#1a88ec" d="M 231.5,447.5 C 232.833,447.5 234.167,447.5 235.5,447.5C 243.833,447.5 252.167,447.5 260.5,447.5C 268.84,447.334 277.173,447.5 285.5,448C 280.286,449.637 274.953,450.637 269.5,451C 276.503,451.497 276.837,452.163 270.5,453C 278.833,453.333 287.167,453.667 295.5,454C 292.167,455.333 288.833,456.667 285.5,458C 298.162,458.5 310.829,458.667 323.5,458.5C 323.263,459.791 323.596,460.791 324.5,461.5C 324.5,464.167 324.5,466.833 324.5,469.5C 323.532,467.393 323.198,465.059 323.5,462.5C 297.5,462.5 271.5,462.5 245.5,462.5C 249.668,461.206 254.001,460.039 258.5,459C 248.318,458.283 238.151,458.449 228,459.5C 226.5,459.333 225,459.167 223.5,459C 226.399,456.766 229.732,455.433 233.5,455C 225.507,454.5 217.507,454.334 209.5,454.5C 209.611,453.883 209.944,453.383 210.5,453C 217.587,451.312 224.587,449.479 231.5,447.5 Z"/></g>
<g><path style="opacity:1" fill="#3394ec" d="M 148.5,447.5 C 158.833,447.5 169.167,447.5 179.5,447.5C 170.57,450.835 161.236,453.002 151.5,454C 159.833,454.333 168.167,454.667 176.5,455C 171.047,455.363 165.714,456.363 160.5,458C 159.944,458.383 159.611,458.883 159.5,459.5C 136.994,459.831 114.66,459.497 92.5,458.5C 111.465,455.753 130.131,452.086 148.5,447.5 Z"/></g>
<g><path style="opacity:1" fill="#2990ed" d="M 179.5,447.5 C 181.167,447.5 182.833,447.5 184.5,447.5C 200.167,447.5 215.833,447.5 231.5,447.5C 224.587,449.479 217.587,451.312 210.5,453C 209.944,453.383 209.611,453.883 209.5,454.5C 202.846,455.662 196.179,456.829 189.5,458C 190.167,458.333 190.833,458.667 191.5,459C 190.207,459.49 188.873,459.657 187.5,459.5C 178.167,459.5 168.833,459.5 159.5,459.5C 159.611,458.883 159.944,458.383 160.5,458C 165.714,456.363 171.047,455.363 176.5,455C 168.167,454.667 159.833,454.333 151.5,454C 161.236,453.002 170.57,450.835 179.5,447.5 Z"/></g>
<g><path style="opacity:1" fill="#1e86e1" d="M 209.5,454.5 C 217.507,454.334 225.507,454.5 233.5,455C 229.732,455.433 226.399,456.766 223.5,459C 225,459.167 226.5,459.333 228,459.5C 238.151,458.449 248.318,458.283 258.5,459C 254.001,460.039 249.668,461.206 245.5,462.5C 238.376,464.78 231.043,466.446 223.5,467.5C 210.167,467.5 196.833,467.5 183.5,467.5C 188.701,466.37 194.035,465.204 199.5,464C 190.167,463.667 180.833,463.333 171.5,463C 176.905,461.504 182.239,460.337 187.5,459.5C 188.873,459.657 190.207,459.49 191.5,459C 190.833,458.667 190.167,458.333 189.5,458C 196.179,456.829 202.846,455.662 209.5,454.5 Z"/></g>
<g><path style="opacity:1" fill="#3c95e0" d="M 33.5,454.5 C 40.5079,454.334 47.5079,454.5 54.5,455C 46.8674,456.552 39.2008,457.885 31.5,459C 47.8299,459.5 64.1633,459.667 80.5,459.5C 75.8688,461.716 70.8688,462.883 65.5,463C 75.5,463.333 85.5,463.667 95.5,464C 86.0968,464.786 76.7635,465.953 67.5,467.5C 44.7504,466.941 22.0838,467.941 -0.5,470.5C -0.5,466.833 -0.5,463.167 -0.5,459.5C 10.6027,456.913 21.9361,455.247 33.5,454.5 Z"/></g>
<g><path style="opacity:1" fill="#0f7bd7" d="M 245.5,462.5 C 271.5,462.5 297.5,462.5 323.5,462.5C 323.198,465.059 323.532,467.393 324.5,469.5C 324.824,476.354 324.491,483.021 323.5,489.5C 323.5,487.833 323.5,486.167 323.5,484.5C 323.5,480.833 323.5,477.167 323.5,473.5C 296.167,473.5 268.833,473.5 241.5,473.5C 243.954,472.379 246.621,471.546 249.5,471C 238.167,470.667 226.833,470.333 215.5,470C 218.379,469.454 221.046,468.621 223.5,467.5C 231.043,466.446 238.376,464.78 245.5,462.5 Z"/></g>
<g><path style="opacity:1" fill="#298adc" d="M 92.5,458.5 C 114.66,459.497 136.994,459.831 159.5,459.5C 168.833,459.5 178.167,459.5 187.5,459.5C 182.239,460.337 176.905,461.504 171.5,463C 180.833,463.333 190.167,463.667 199.5,464C 194.035,465.204 188.701,466.37 183.5,467.5C 176.749,468.036 170.082,469.036 163.5,470.5C 149.5,470.5 135.5,470.5 121.5,470.5C 98.4976,470.667 75.4976,470.5 52.5,470C 57.6813,469.4 62.6813,468.566 67.5,467.5C 76.7635,465.953 86.0968,464.786 95.5,464C 85.5,463.667 75.5,463.333 65.5,463C 70.8688,462.883 75.8688,461.716 80.5,459.5C 84.5191,459.354 88.5191,459.021 92.5,458.5 Z"/></g>
<g><path style="opacity:1" fill="#177ccf" d="M 183.5,467.5 C 196.833,467.5 210.167,467.5 223.5,467.5C 221.046,468.621 218.379,469.454 215.5,470C 226.833,470.333 238.167,470.667 249.5,471C 246.621,471.546 243.954,472.379 241.5,473.5C 234.863,474.686 228.197,475.686 221.5,476.5C 207.829,476.667 194.163,476.5 180.5,476C 184.558,475.66 188.558,474.993 192.5,474C 177.833,473.667 163.167,473.333 148.5,473C 153.681,472.4 158.681,471.566 163.5,470.5C 170.082,469.036 176.749,468.036 183.5,467.5 Z"/></g>
<g><path style="opacity:1" fill="#2782c9" d="M 67.5,467.5 C 62.6813,468.566 57.6813,469.4 52.5,470C 75.4976,470.5 98.4976,470.667 121.5,470.5C 117.028,471.644 112.362,472.477 107.5,473C 118.833,473.333 130.167,473.667 141.5,474C 128.012,475.809 114.678,477.642 101.5,479.5C 98.8333,479.5 96.1667,479.5 93.5,479.5C 62.1667,479.5 30.8333,479.5 -0.5,479.5C -0.5,476.5 -0.5,473.5 -0.5,470.5C 22.0838,467.941 44.7504,466.941 67.5,467.5 Z"/></g>
<g><path style="opacity:1" fill="#1a7ac7" d="M 121.5,470.5 C 135.5,470.5 149.5,470.5 163.5,470.5C 158.681,471.566 153.681,472.4 148.5,473C 163.167,473.333 177.833,473.667 192.5,474C 188.558,474.993 184.558,475.66 180.5,476C 194.163,476.5 207.829,476.667 221.5,476.5C 217.571,477.823 213.571,478.823 209.5,479.5C 173.5,479.5 137.5,479.5 101.5,479.5C 114.678,477.642 128.012,475.809 141.5,474C 130.167,473.667 118.833,473.333 107.5,473C 112.362,472.477 117.028,471.644 121.5,470.5 Z"/></g>
<g><path style="opacity:1" fill="#0a71c1" d="M 241.5,473.5 C 268.833,473.5 296.167,473.5 323.5,473.5C 323.5,477.167 323.5,480.833 323.5,484.5C 295.5,484.5 267.5,484.5 239.5,484.5C 244.77,482.225 250.437,480.725 256.5,480C 240.837,479.5 225.17,479.333 209.5,479.5C 213.571,478.823 217.571,477.823 221.5,476.5C 228.197,475.686 234.863,474.686 241.5,473.5 Z"/></g>
<g><path style="opacity:1" fill="#1674bb" d="M 93.5,479.5 C 96.1667,479.5 98.8333,479.5 101.5,479.5C 137.5,479.5 173.5,479.5 209.5,479.5C 225.17,479.333 240.837,479.5 256.5,480C 250.437,480.725 244.77,482.225 239.5,484.5C 216.814,484.232 194.147,484.565 171.5,485.5C 154.008,484.503 136.341,484.17 118.5,484.5C 121.977,483.677 125.644,483.177 129.5,483C 110.5,482.667 91.5,482.333 72.5,482C 79.6927,481.547 86.6927,480.714 93.5,479.5 Z"/></g>
<g><path style="opacity:1" fill="#1f77b6" d="M -0.5,479.5 C 30.8333,479.5 62.1667,479.5 93.5,479.5C 86.6927,480.714 79.6927,481.547 72.5,482C 91.5,482.333 110.5,482.667 129.5,483C 125.644,483.177 121.977,483.677 118.5,484.5C 106.659,485.177 94.9919,486.177 83.5,487.5C 55.8333,487.5 28.1667,487.5 0.5,487.5C 0.5,489.167 0.5,490.833 0.5,492.5C 0.5,492.833 0.5,493.167 0.5,493.5C 0.166667,493.5 -0.166667,493.5 -0.5,493.5C -0.5,488.833 -0.5,484.167 -0.5,479.5 Z"/></g>
<g><path style="opacity:1" fill="#086ab0" d="M 239.5,484.5 C 267.5,484.5 295.5,484.5 323.5,484.5C 323.5,486.167 323.5,487.833 323.5,489.5C 323.5,490.833 323.5,492.167 323.5,493.5C 322.566,492.432 322.232,491.099 322.5,489.5C 268.882,487.868 212.549,487.035 153.5,487C 159.465,486.037 165.465,485.537 171.5,485.5C 194.147,484.565 216.814,484.232 239.5,484.5 Z"/></g>
<g><path style="opacity:1" fill="#166da7" d="M 83.5,487.5 C 103.503,487.333 123.503,487.5 143.5,488C 127.014,489.508 110.681,491.008 94.5,492.5C 63.1667,492.5 31.8333,492.5 0.5,492.5C 0.5,490.833 0.5,489.167 0.5,487.5C 28.1667,487.5 55.8333,487.5 83.5,487.5 Z"/></g>
<g><path style="opacity:1" fill="#0b67a6" d="M 118.5,484.5 C 136.341,484.17 154.008,484.503 171.5,485.5C 165.465,485.537 159.465,486.037 153.5,487C 212.549,487.035 268.882,487.868 322.5,489.5C 322.232,491.099 322.566,492.432 323.5,493.5C 323.068,494.71 322.401,495.71 321.5,496.5C 321.5,495.5 321.5,494.5 321.5,493.5C 267.495,493.538 213.495,493.704 159.5,494C 163.167,493.667 166.833,493.333 170.5,493C 145.169,492.5 119.836,492.333 94.5,492.5C 110.681,491.008 127.014,489.508 143.5,488C 123.503,487.5 103.503,487.333 83.5,487.5C 94.9919,486.177 106.659,485.177 118.5,484.5 Z"/></g>
<g><path style="opacity:1" fill="#0c6296" d="M 0.5,492.5 C 31.8333,492.5 63.1667,492.5 94.5,492.5C 119.836,492.333 145.169,492.5 170.5,493C 166.833,493.333 163.167,493.667 159.5,494C 213.495,493.704 267.495,493.538 321.5,493.5C 321.5,494.5 321.5,495.5 321.5,496.5C 321.34,498.153 320.674,499.486 319.5,500.5C 267.171,499.167 214.504,498.5 161.5,498.5C 108.496,498.5 55.8291,499.167 3.5,500.5C 1.70732,498.574 0.707317,496.241 0.5,493.5C 0.5,493.167 0.5,492.833 0.5,492.5 Z"/></g>
<g><path style="opacity:1" fill="#085b8a" d="M 319.5,500.5 C 318.974,502.23 317.974,503.564 316.5,504.5C 275.846,502.671 234.846,501.838 193.5,502C 199.167,501.667 204.833,501.333 210.5,501C 176.333,500.833 142.167,500.667 108,500.5C 73.4934,500.5 39.3268,501.167 5.5,502.5C 4.5,502.167 3.83333,501.5 3.5,500.5C 55.8291,499.167 108.496,498.5 161.5,498.5C 214.504,498.5 267.171,499.167 319.5,500.5 Z"/></g>
<g><path style="opacity:1" fill="#075881" d="M 316.5,504.5 C 316.027,505.906 315.027,506.573 313.5,506.5C 313.611,505.883 313.944,505.383 314.5,505C 212.333,504.167 110.333,504.334 8.5,505.5C 7.16667,504.833 6.16667,503.833 5.5,502.5C 39.3268,501.167 73.4934,500.5 108,500.5C 142.167,500.667 176.333,500.833 210.5,501C 204.833,501.333 199.167,501.667 193.5,502C 234.846,501.838 275.846,502.671 316.5,504.5 Z"/></g>
<g><path style="opacity:1" fill="#045377" d="M 313.5,506.5 C 312.341,508.25 310.674,509.25 308.5,509.5C 308.611,508.883 308.944,508.383 309.5,508C 210.833,507.333 112.167,507.333 13.5,508C 14.056,508.383 14.3893,508.883 14.5,509.5C 11.8021,509.155 9.80214,507.822 8.5,505.5C 110.333,504.334 212.333,504.167 314.5,505C 313.944,505.383 313.611,505.883 313.5,506.5 Z"/></g>
<g><path style="opacity:1" fill="#024d6a" d="M 308.5,509.5 C 307.5,510.167 306.5,510.833 305.5,511.5C 209.5,511.5 113.5,511.5 17.5,511.5C 16.5,510.833 15.5,510.167 14.5,509.5C 14.3893,508.883 14.056,508.383 13.5,508C 112.167,507.333 210.833,507.333 309.5,508C 308.944,508.383 308.611,508.883 308.5,509.5 Z"/></g>
</svg>
