<?xml version="1.0" encoding="UTF-8"?>
<!DOCTYPE svg PUBLIC "-//W3C//DTD SVG 1.1//EN" "http://www.w3.org/Graphics/SVG/1.1/DTD/svg11.dtd">
<svg xmlns="http://www.w3.org/2000/svg" version="1.1" width="512px" height="512px" style="shape-rendering:geometricPrecision; text-rendering:geometricPrecision; image-rendering:optimizeQuality; fill-rule:evenodd; clip-rule:evenodd" xmlns:xlink="http://www.w3.org/1999/xlink">
<g><path style="opacity:0.99" fill="#8a8991" d="M 58.5,-0.5 C 82.1667,-0.5 105.833,-0.5 129.5,-0.5C 146.949,2.37539 163.115,8.70872 178,18.5C 178.5,12.1754 178.666,5.84209 178.5,-0.5C 183.5,-0.5 188.5,-0.5 193.5,-0.5C 193.5,33.1667 193.5,66.8333 193.5,100.5C 160.5,100.5 127.5,100.5 94.5,100.5C 94.5,106.833 94.5,113.167 94.5,119.5C 81.928,79.7745 69.928,39.7745 58.5,-0.5 Z"/></g>
<g><path style="opacity:1" fill="#57555c" d="M 193.5,-0.5 C 238.5,-0.5 283.5,-0.5 328.5,-0.5C 317.279,38.7369 305.612,77.7369 293.5,116.5C 293.5,111.167 293.5,105.833 293.5,100.5C 260.5,100.5 227.5,100.5 194.5,100.5C 194.167,100.5 193.833,100.5 193.5,100.5C 193.5,66.8333 193.5,33.1667 193.5,-0.5 Z"/></g>
<g><path style="opacity:0.98" fill="#dfdfe1" d="M 464.5,0.5 C 448.488,28.5274 432.488,56.5274 416.5,84.5C 406.812,79.5708 397.312,74.2375 388,68.5C 384.664,73.0019 380.831,77.0019 376.5,80.5C 369.767,48.1302 381.767,25.9635 412.5,14C 429.773,9.18199 447.106,4.68199 464.5,0.5 Z"/></g>
<g><path style="opacity:1" fill="#acabb1" d="M 464.5,0.5 C 471.537,21.6503 476.871,43.3169 480.5,65.5C 478.961,92.3621 465.294,109.362 439.5,116.5C 441.208,111.228 442.375,105.895 443,100.5C 434.355,95.0964 425.522,90.0964 416.5,85.5C 416.5,85.1667 416.5,84.8333 416.5,84.5C 432.488,56.5274 448.488,28.5274 464.5,0.5 Z"/></g>
<g><path style="opacity:0.992" fill="#fe9a01" d="M 416.5,84.5 C 416.5,84.8333 416.5,85.1667 416.5,85.5C 394.47,122.218 372.803,159.218 351.5,196.5C 338.635,188.901 325.635,181.568 312.5,174.5C 308.899,172.023 305.233,169.523 301.5,167C 310.71,156.628 319.71,146.128 328.5,135.5C 344.5,117.167 360.5,98.8333 376.5,80.5C 380.831,77.0019 384.664,73.0019 388,68.5C 397.312,74.2375 406.812,79.5708 416.5,84.5 Z"/></g>
<g><path style="opacity:1" fill="#e57501" d="M 416.5,85.5 C 425.522,90.0964 434.355,95.0964 443,100.5C 442.375,105.895 441.208,111.228 439.5,116.5C 437.102,122.696 435.102,129.029 433.5,135.5C 432.883,135.611 432.383,135.944 432,136.5C 422.324,166.363 412.157,196.029 401.5,225.5C 397.966,223.234 394.3,221.234 390.5,219.5C 377.7,211.596 364.7,203.929 351.5,196.5C 372.803,159.218 394.47,122.218 416.5,85.5 Z"/></g>
<g><path style="opacity:0.999" fill="#e2cdef" d="M 193.5,100.5 C 193.833,100.5 194.167,100.5 194.5,100.5C 194.5,133.833 194.5,167.167 194.5,200.5C 194.167,200.5 193.833,200.5 193.5,200.5C 178.833,200.5 164.167,200.5 149.5,200.5C 122.583,202.472 104.749,190.805 96,165.5C 95.8302,155.325 95.3302,145.325 94.5,135.5C 94.5,130.167 94.5,124.833 94.5,119.5C 94.5,113.167 94.5,106.833 94.5,100.5C 127.5,100.5 160.5,100.5 193.5,100.5 Z"/></g>
<g><path style="opacity:1" fill="#d4b4e7" d="M 194.5,100.5 C 227.5,100.5 260.5,100.5 293.5,100.5C 293.5,105.833 293.5,111.167 293.5,116.5C 293.5,122.833 293.5,129.167 293.5,135.5C 293.713,145.537 293.213,155.537 292,165.5C 286.548,184.286 274.382,195.953 255.5,200.5C 250.167,200.5 244.833,200.5 239.5,200.5C 224.5,200.5 209.5,200.5 194.5,200.5C 194.5,167.167 194.5,133.833 194.5,100.5 Z"/></g>
<g><path style="opacity:0.995" fill="#9bc8fe" d="M 94.5,135.5 C 95.3302,145.325 95.8302,155.325 96,165.5C 104.749,190.805 122.583,202.472 149.5,200.5C 149.5,248.833 149.5,297.167 149.5,345.5C 109.833,345.5 70.1667,345.5 30.5,345.5C 30.5,275.5 30.5,205.5 30.5,135.5C 51.8333,135.5 73.1667,135.5 94.5,135.5 Z"/></g>
<g><path style="opacity:1" fill="#0b9ae3" d="M 293.5,135.5 C 305.167,135.5 316.833,135.5 328.5,135.5C 319.71,146.128 310.71,156.628 301.5,167C 305.233,169.523 308.899,172.023 312.5,174.5C 293.737,207.033 274.737,239.367 255.5,271.5C 255.5,247.833 255.5,224.167 255.5,200.5C 274.382,195.953 286.548,184.286 292,165.5C 293.213,155.537 293.713,145.537 293.5,135.5 Z"/></g>
<g><path style="opacity:1" fill="#029ae4" d="M 433.5,135.5 C 449.167,135.5 464.833,135.5 480.5,135.5C 480.5,205.5 480.5,275.5 480.5,345.5C 426.167,345.5 371.833,345.5 317.5,345.5C 341.848,303.465 366.182,261.465 390.5,219.5C 394.3,221.234 397.966,223.234 401.5,225.5C 412.157,196.029 422.324,166.363 432,136.5C 432.383,135.944 432.883,135.611 433.5,135.5 Z"/></g>
<g><path style="opacity:1" fill="#fee377" d="M 312.5,174.5 C 325.635,181.568 338.635,188.901 351.5,196.5C 322.581,246.003 293.914,295.67 265.5,345.5C 262.167,345.5 258.833,345.5 255.5,345.5C 241.5,345.5 227.5,345.5 213.5,345.5C 222.179,330.139 230.845,314.806 239.5,299.5C 245.336,290.5 250.669,281.167 255.5,271.5C 274.737,239.367 293.737,207.033 312.5,174.5 Z"/></g>
<g><path style="opacity:1" fill="#fea733" d="M 351.5,196.5 C 364.7,203.929 377.7,211.596 390.5,219.5C 366.182,261.465 341.848,303.465 317.5,345.5C 300.167,345.5 282.833,345.5 265.5,345.5C 293.914,295.67 322.581,246.003 351.5,196.5 Z"/></g>
<g><path style="opacity:1" fill="#b77fd9" d="M 149.5,200.5 C 164.167,200.5 178.833,200.5 193.5,200.5C 193.5,248.833 193.5,297.167 193.5,345.5C 178.833,345.5 164.167,345.5 149.5,345.5C 149.5,297.167 149.5,248.833 149.5,200.5 Z"/></g>
<g><path style="opacity:1" fill="#8136ad" d="M 193.5,200.5 C 193.833,200.5 194.167,200.5 194.5,200.5C 209.5,200.5 224.5,200.5 239.5,200.5C 239.5,233.5 239.5,266.5 239.5,299.5C 230.845,314.806 222.179,330.139 213.5,345.5C 206.833,345.5 200.167,345.5 193.5,345.5C 193.5,297.167 193.5,248.833 193.5,200.5 Z"/></g>
<g><path style="opacity:1" fill="#9bc9fe" d="M 239.5,200.5 C 244.833,200.5 250.167,200.5 255.5,200.5C 255.5,224.167 255.5,247.833 255.5,271.5C 250.669,281.167 245.336,290.5 239.5,299.5C 239.5,266.5 239.5,233.5 239.5,200.5 Z"/></g>
<g><path style="opacity:0.998" fill="#005ece" d="M 30.5,345.5 C 70.1667,345.5 109.833,345.5 149.5,345.5C 164.167,345.5 178.833,345.5 193.5,345.5C 200.167,345.5 206.833,345.5 213.5,345.5C 227.5,345.5 241.5,345.5 255.5,345.5C 255.5,378.833 255.5,412.167 255.5,445.5C 250.167,445.5 244.833,445.5 239.5,445.5C 229.167,445.5 218.833,445.5 208.5,445.5C 149.167,445.5 89.8333,445.5 30.5,445.5C 30.5,412.167 30.5,378.833 30.5,345.5 Z"/></g>
<g><path style="opacity:1" fill="#003f8a" d="M 255.5,345.5 C 258.833,345.5 262.167,345.5 265.5,345.5C 282.833,345.5 300.167,345.5 317.5,345.5C 371.833,345.5 426.167,345.5 480.5,345.5C 480.5,378.833 480.5,412.167 480.5,445.5C 420.167,445.5 359.833,445.5 299.5,445.5C 289.167,445.5 278.833,445.5 268.5,445.5C 264.167,445.5 259.833,445.5 255.5,445.5C 255.5,412.167 255.5,378.833 255.5,345.5 Z"/></g>
<g><path style="opacity:0.968" fill="#8a8991" d="M 208.5,445.5 C 218.833,445.5 229.167,445.5 239.5,445.5C 239.5,457.5 239.5,469.5 239.5,481.5C 229.167,481.5 218.833,481.5 208.5,481.5C 208.5,469.5 208.5,457.5 208.5,445.5 Z"/></g>
<g><path style="opacity:1" fill="#58565d" d="M 268.5,445.5 C 278.833,445.5 289.167,445.5 299.5,445.5C 299.5,457.5 299.5,469.5 299.5,481.5C 289.167,481.5 278.833,481.5 268.5,481.5C 268.5,469.5 268.5,457.5 268.5,445.5 Z"/></g>
<g><path style="opacity:0.993" fill="#005dcd" d="M 208.5,481.5 C 218.833,481.5 229.167,481.5 239.5,481.5C 244.5,481.5 249.5,481.5 254.5,481.5C 254.5,491.5 254.5,501.5 254.5,511.5C 229.167,511.5 203.833,511.5 178.5,511.5C 178.5,501.5 178.5,491.5 178.5,481.5C 188.5,481.5 198.5,481.5 208.5,481.5 Z"/></g>
<g><path style="opacity:1" fill="#003f8a" d="M 254.5,481.5 C 259.167,481.5 263.833,481.5 268.5,481.5C 278.833,481.5 289.167,481.5 299.5,481.5C 309.5,481.5 319.5,481.5 329.5,481.5C 329.5,491.5 329.5,501.5 329.5,511.5C 304.5,511.5 279.5,511.5 254.5,511.5C 254.5,501.5 254.5,491.5 254.5,481.5 Z"/></g>
</svg>
